<svg viewBox="0 0 330 200" xmlns="http://www.w3.org/2000/svg"><g><g><g><g><g><line x1="29.4375" y1="177" x2="24.4375" y2="177" style="visibility: inherit;" fill="rgb(0, 0, 0)" stroke="rgb(204, 204, 204)" stroke-width="1px"></line><line x1="29.4375" y1="159.3" x2="24.4375" y2="159.3" style="visibility: inherit;" fill="rgb(0, 0, 0)" stroke="rgb(204, 204, 204)" stroke-width="1px"></line><line x1="29.4375" y1="141.6" x2="24.4375" y2="141.6" style="visibility: inherit;" fill="rgb(0, 0, 0)" stroke="rgb(204, 204, 204)" stroke-width="1px"></line><line x1="29.4375" y1="123.9" x2="24.4375" y2="123.9" style="visibility: inherit;" fill="rgb(0, 0, 0)" stroke="rgb(204, 204, 204)" stroke-width="1px"></line><line x1="29.4375" y1="106.2" x2="24.4375" y2="106.2" style="visibility: inherit;" fill="rgb(0, 0, 0)" stroke="rgb(204, 204, 204)" stroke-width="1px"></line><line x1="29.4375" y1="88.5" x2="24.4375" y2="88.5" style="visibility: inherit;" fill="rgb(0, 0, 0)" stroke="rgb(204, 204, 204)" stroke-width="1px"></line><line x1="29.4375" y1="70.8" x2="24.4375" y2="70.8" style="visibility: inherit;" fill="rgb(0, 0, 0)" stroke="rgb(204, 204, 204)" stroke-width="1px"></line><line x1="29.4375" y1="53.10000000000001" x2="24.4375" y2="53.10000000000001" style="visibility: inherit;" fill="rgb(0, 0, 0)" stroke="rgb(204, 204, 204)" stroke-width="1px"></line><line x1="29.4375" y1="35.400000000000006" x2="24.4375" y2="35.400000000000006" style="visibility: inherit;" fill="rgb(0, 0, 0)" stroke="rgb(204, 204, 204)" stroke-width="1px"></line><line x1="29.4375" y1="17.69999999999999" x2="24.4375" y2="17.69999999999999" style="visibility: inherit;" fill="rgb(0, 0, 0)" stroke="rgb(204, 204, 204)" stroke-width="1px"></line><line x1="29.4375" y1="0" x2="24.4375" y2="0" style="visibility: inherit;" fill="rgb(0, 0, 0)" stroke="rgb(204, 204, 204)" stroke-width="1px"></line></g><g transform="translate(19.4375, 0)"><text x="0" y="177" dx="0em" dy="0.3em" style="text-anchor: end; visibility: hidden; font-family: &quot;Helvetica Neue&quot;, sans-serif; font-size: 12px; font-weight: 200;" fill="rgb(50, 49, 63)" stroke="none" stroke-width="1px">-2</text><text x="0" y="159.3" dx="0em" dy="0.3em" style="text-anchor: end; visibility: inherit; font-family: &quot;Helvetica Neue&quot;, sans-serif; font-size: 12px; font-weight: 200;" fill="rgb(50, 49, 63)" stroke="none" stroke-width="1px">-1</text><text x="0" y="141.6" dx="0em" dy="0.3em" style="text-anchor: end; visibility: hidden; font-family: &quot;Helvetica Neue&quot;, sans-serif; font-size: 12px; font-weight: 200;" fill="rgb(50, 49, 63)" stroke="none" stroke-width="1px">0</text><text x="0" y="123.9" dx="0em" dy="0.3em" style="text-anchor: end; visibility: inherit; font-family: &quot;Helvetica Neue&quot;, sans-serif; font-size: 12px; font-weight: 200;" fill="rgb(50, 49, 63)" stroke="none" stroke-width="1px">1</text><text x="0" y="106.2" dx="0em" dy="0.3em" style="text-anchor: end; visibility: hidden; font-family: &quot;Helvetica Neue&quot;, sans-serif; font-size: 12px; font-weight: 200;" fill="rgb(50, 49, 63)" stroke="none" stroke-width="1px">2</text><text x="0" y="88.5" dx="0em" dy="0.3em" style="text-anchor: end; visibility: inherit; font-family: &quot;Helvetica Neue&quot;, sans-serif; font-size: 12px; font-weight: 200;" fill="rgb(50, 49, 63)" stroke="none" stroke-width="1px">3</text><text x="0" y="70.8" dx="0em" dy="0.3em" style="text-anchor: end; visibility: hidden; font-family: &quot;Helvetica Neue&quot;, sans-serif; font-size: 12px; font-weight: 200;" fill="rgb(50, 49, 63)" stroke="none" stroke-width="1px">4</text><text x="0" y="53.10000000000001" dx="0em" dy="0.3em" style="text-anchor: end; visibility: inherit; font-family: &quot;Helvetica Neue&quot;, sans-serif; font-size: 12px; font-weight: 200;" fill="rgb(50, 49, 63)" stroke="none" stroke-width="1px">5</text><text x="0" y="35.400000000000006" dx="0em" dy="0.3em" style="text-anchor: end; visibility: hidden; font-family: &quot;Helvetica Neue&quot;, sans-serif; font-size: 12px; font-weight: 200;" fill="rgb(50, 49, 63)" stroke="none" stroke-width="1px">6</text><text x="0" y="17.69999999999999" dx="0em" dy="0.3em" style="text-anchor: end; visibility: inherit; font-family: &quot;Helvetica Neue&quot;, sans-serif; font-size: 12px; font-weight: 200;" fill="rgb(50, 49, 63)" stroke="none" stroke-width="1px">7</text><text x="0" y="0" dx="0em" dy="0.3em" style="text-anchor: end; visibility: hidden; font-family: &quot;Helvetica Neue&quot;, sans-serif; font-size: 12px; font-weight: 200;" fill="rgb(50, 49, 63)" stroke="none" stroke-width="1px">8</text></g><line x1="29.4375" y1="0" x2="29.4375" y2="177" fill="rgb(0, 0, 0)" stroke="rgb(204, 204, 204)" stroke-width="1px"></line></g></g><g transform="translate(29, 0)" clip-path="url(#clip_0)"><clipPath id="clip_0"><rect width="300" height="177"></rect></clipPath><g><g><g><line x1="0" y1="0" x2="0" y2="177" fill="rgb(0, 0, 0)" stroke="rgb(60, 60, 60)" stroke-width="1px" opacity="0.25"></line><line x1="25.046875" y1="0" x2="25.046875" y2="177" fill="rgb(0, 0, 0)" stroke="rgb(60, 60, 60)" stroke-width="1px" opacity="0.25"></line><line x1="50.09375" y1="0" x2="50.09375" y2="177" fill="rgb(0, 0, 0)" stroke="rgb(60, 60, 60)" stroke-width="1px" opacity="0.25"></line><line x1="75.140625" y1="0" x2="75.140625" y2="177" fill="rgb(0, 0, 0)" stroke="rgb(60, 60, 60)" stroke-width="1px" opacity="0.25"></line><line x1="100.1875" y1="0" x2="100.1875" y2="177" fill="rgb(0, 0, 0)" stroke="rgb(60, 60, 60)" stroke-width="1px" opacity="0.25"></line><line x1="125.234375" y1="0" x2="125.234375" y2="177" fill="rgb(0, 0, 0)" stroke="rgb(60, 60, 60)" stroke-width="1px" opacity="0.25"></line><line x1="150.28125" y1="0" x2="150.28125" y2="177" fill="rgb(0, 0, 0)" stroke="rgb(60, 60, 60)" stroke-width="1px" opacity="0.25"></line><line x1="175.328125" y1="0" x2="175.328125" y2="177" fill="rgb(0, 0, 0)" stroke="rgb(60, 60, 60)" stroke-width="1px" opacity="0.25"></line><line x1="200.375" y1="0" x2="200.375" y2="177" fill="rgb(0, 0, 0)" stroke="rgb(60, 60, 60)" stroke-width="1px" opacity="0.25"></line><line x1="225.421875" y1="0" x2="225.421875" y2="177" fill="rgb(0, 0, 0)" stroke="rgb(60, 60, 60)" stroke-width="1px" opacity="0.25"></line><line x1="250.46875" y1="0" x2="250.46875" y2="177" fill="rgb(0, 0, 0)" stroke="rgb(60, 60, 60)" stroke-width="1px" opacity="0.25"></line><line x1="275.515625" y1="0" x2="275.515625" y2="177" fill="rgb(0, 0, 0)" stroke="rgb(60, 60, 60)" stroke-width="1px" opacity="0.25"></line><line x1="300.5625" y1="0" x2="300.5625" y2="177" fill="rgb(0, 0, 0)" stroke="rgb(60, 60, 60)" stroke-width="1px" opacity="0.25"></line></g><g><line x1="0" y1="177" x2="300.5625" y2="177" fill="rgb(0, 0, 0)" stroke="rgb(60, 60, 60)" stroke-width="1px" opacity="0.25"></line><line x1="0" y1="159.3" x2="300.5625" y2="159.3" fill="rgb(0, 0, 0)" stroke="rgb(60, 60, 60)" stroke-width="1px" opacity="0.25"></line><line x1="0" y1="141.6" x2="300.5625" y2="141.6" fill="rgb(0, 0, 0)" stroke="rgb(60, 60, 60)" stroke-width="1px" opacity="0.25"></line><line x1="0" y1="123.9" x2="300.5625" y2="123.9" fill="rgb(0, 0, 0)" stroke="rgb(60, 60, 60)" stroke-width="1px" opacity="0.25"></line><line x1="0" y1="106.2" x2="300.5625" y2="106.2" fill="rgb(0, 0, 0)" stroke="rgb(60, 60, 60)" stroke-width="1px" opacity="0.25"></line><line x1="0" y1="88.5" x2="300.5625" y2="88.5" fill="rgb(0, 0, 0)" stroke="rgb(60, 60, 60)" stroke-width="1px" opacity="0.25"></line><line x1="0" y1="70.8" x2="300.5625" y2="70.8" fill="rgb(0, 0, 0)" stroke="rgb(60, 60, 60)" stroke-width="1px" opacity="0.25"></line><line x1="0" y1="53.10000000000001" x2="300.5625" y2="53.10000000000001" fill="rgb(0, 0, 0)" stroke="rgb(60, 60, 60)" stroke-width="1px" opacity="0.25"></line><line x1="0" y1="35.400000000000006" x2="300.5625" y2="35.400000000000006" fill="rgb(0, 0, 0)" stroke="rgb(60, 60, 60)" stroke-width="1px" opacity="0.25"></line><line x1="0" y1="17.69999999999999" x2="300.5625" y2="17.69999999999999" fill="rgb(0, 0, 0)" stroke="rgb(60, 60, 60)" stroke-width="1px" opacity="0.25"></line><line x1="0" y1="0" x2="300.5625" y2="0" fill="rgb(0, 0, 0)" stroke="rgb(60, 60, 60)" stroke-width="1px" opacity="0.25"></line></g></g></g><g><g><line x1="0" y1="141.6" x2="300.5625" y2="141.6" fill="rgb(0, 0, 0)" stroke="rgb(153, 153, 153)" stroke-width="1.5px"></line></g></g><g><g><line x1="25.046875" y1="0" x2="25.046875" y2="177" fill="rgb(0, 0, 0)" stroke="rgb(153, 153, 153)" stroke-width="1.5px"></line></g></g><g><g><g><g><g><path stroke="rgb(204, 51, 17)" stroke-width="2px" d="M25.79828125,139.82999997362495L26.5496875,138.01088374308773L27.30109375,140.52032658112392L28.052500000000002,141.7731171664492L28.80390625,138.57973478806335L29.5553125,138.8180617297613L29.5553125,138.9877724560978L30.306718749999998,138.04845315667728L31.058125,138.29309930384957L31.80953125,138.03918569708645L32.5609375,135.11357121106735L33.312343750000004,133.0822848626945L34.06375,133.97704178553744L34.81515625,132.08538331537062L35.566562499999996,131.97975890084072L36.31796875,132.0504225275867L37.069375,130.70396800423524L37.820781249999996,131.03010561436048L38.5721875,131.17261258983467L39.32359375,131.7272809874151L40.075,130.41891016890864L40.82640625,129.78414758059597L41.5778125,129.0783847176237L42.32921875,129.0880395619435L43.080625000000005,127.82306251361118L43.83203125,125.91906791085344L44.5834375,125.04023772148186L45.334843750000005,125.08335713769819L46.08625,125.00348912835165L46.837656249999995,123.27979884533823L47.5890625,120.06122762224857L48.34046875,119.04518028528508L49.091875,115.6019127028662L49.84328125,116.35527363183786L50.5946875,113.3723050779214L51.34609375,114.25107239797195L52.097500000000004,114.41019841357077L52.848906250000006,114.99338911999057L53.6003125,114.45699460674388L54.35171875,112.67019250442905L55.103125,110.57651865514507L55.854531249999994,110.73821486662L56.605937499999996,108.67905275915989L57.35734375,108.63711822546976L58.10875,104.1196194986424L58.86015625,102.79042565478828L59.6115625,102.67964948375136L60.36296875,102.7812420363649L61.114375,102.05799714529266L61.865781250000005,102.70425341871741L62.6171875,100.26410919813331L63.36859375,100.60357672223829L64.12,97.18921284669446L64.87140624999999,98.80795445444312L65.6228125,98.12343021540849L66.37421875,97.27932876766614L67.125625,95.48698382695422L67.87703125,94.89486218108924L68.6284375,94.43663533957748L69.37984375,93.31116365951661L70.13125,94.42724273823386L70.88265625,91.6280776204834L71.6340625,90.36967844578619L72.38546875,90.56093407868782L73.136875,91.82193311542188L73.88828124999999,93.69781495247177L74.6396875,94.09584509707199L75.39109375000001,94.27569526128364L76.14250000000001,94.1522896849067L76.89390625,92.76725192335604L77.6453125,92.1423643112823L78.39671874999999,90.28672458507023L79.148125,90.96669946193633L79.89953125,89.56795999301532L80.6509375,84.84905325581981L81.40234375,85.63119257052765L82.15374999999999,87.92073702434678L82.90515624999999,89.5989757493273L83.65656249999999,90.79709552086241L84.40796875,89.02733780762489L85.159375,90.06177307724663L85.91078125,90.45953195536111L86.6621875,88.71141790989725L87.41359375,88.89287387304927L88.165,89.45011354159647L88.91640625,90.65149391155511L89.6678125,88.89643104872242L90.41921875,90.12686361671844L91.170625,89.94211208359972L91.92203125,90.0561695590758L92.6734375,89.49061759164957L93.42484375000001,88.9559880255463L94.17625000000001,87.87378773714148L94.92765625000001,84.64036734784288L95.6790625,83.696993301144L96.43046875,81.65252429446001L97.18187499999999,81.25582875650778L97.93328125,81.1687361595888L98.6846875,82.52599479072946L99.43609375,83.42556357417716L100.1875,82.83720207861597L100.93890624999999,82.28083997909329L101.69031249999999,81.46703991967456L102.44171874999999,80.60158853731761L103.193125,80.7417751612787L103.94453125,81.4494284168226L104.6959375,80.96867365315883L105.44734375,79.36418980313282L106.19875,76.21807182436835L106.95015625,75.06270103758958L107.7015625,75.02359277828124L108.45296875,72.78387201161763L109.204375,73.25110435008688L109.95578125,71.77799541925548L110.7071875,70.38471112532177L111.45859375,67.34371969531118L112.21000000000001,67.43491672114494L112.96140625000001,65.31968761635713L113.71281250000001,63.510418148980094L114.46421875,63.90455975245668L115.215625,64.18166895163908L115.96703124999999,63.008435836088026L116.7184375,62.66416729183727L117.46984375,61.094714485736674L118.22125,59.51450862559885L118.97265625,58.59380112965606L119.72406249999999,56.766270924697054L120.47546874999999,56.95076375771001L121.22687499999999,54.829576113553586L121.97828125,53.01440602088549L122.7296875,54.45372785812033L123.48109375,51.989507319917706L124.2325,52.04951122393936L124.98390625,52.68008833587757L125.7353125,50.02504640280888L126.48671875,47.03538039416986L127.238125,46.21550187071918L127.98953125,46.49181499112254L128.7409375,45.89259001442622L129.49234375,46.85567596725542L130.24375,47.575476543306735L130.99515625,47.587064998524L131.7465625,48.267326301269605L132.49796875,47.18980688528865L133.24937500000001,45.21440645393892L134.00078125000002,44.20622396492047L134.7521875,46.407556871777075L135.50359375,45.71738231956866L136.255,45.73372776315739L137.00640625,43.550318437464796L137.7578125,41.58047052221258L138.50921875,44.210274368619025L139.260625,44.97721680986342L140.01203125,44.173151134507066L140.7634375,43.60371669579263L141.51484375,44.97697419077846L142.26624999999999,45.98926353345996L143.01765625,44.843785653362175L143.7690625,46.3412209425278L144.52046875,45.367939769204156L145.271875,46.26348866363017L146.02328125,47.206257341911765L146.7746875,49.14960794903689L147.52609375,48.21586545998636L148.2775,47.33255597863666L149.02890625,47.357260232156676L149.7803125,49.865944326355034L150.53171875,49.94501046597209L151.28312499999998,49.8286299127179L152.03453125000001,48.47589616704781L152.7859375,50.637360753327584L153.53734375000002,49.91007130355257L154.28875,50.08233907756323L155.04015625000002,50.05413114903078L155.7915625,50.12303231892213L156.54296875,46.07803786066154L157.294375,44.927881750640154L158.04578125,43.07516132702986L158.7971875,40.55782105149552L159.54859375,38.4631827908934L160.3,37.43750643689799L161.05140625,34.077623887973914L161.8028125,33.86228367500743L162.55421875000002,36.43049436759853L163.305625,38.47767867790793L164.05703125,38.69381120760116L164.8084375,38.993854709755425L165.55984375,39.37327759842907L166.31125,41.83502890159079L167.06265624999997,41.678693053020766L167.8140625,43.34686497968818L168.56546874999998,43.873546648668565L169.316875,45.61435378665038L170.06828124999998,45.54067713260426L170.81968750000001,44.610741974053326L171.57109375,46.789642872864505L172.32250000000002,47.32157144667306L173.07390625,45.339653113985435L173.82531250000002,46.04546327480716L174.57671875,45.94850679644975L175.328125,47.194925294476064L176.07953125,44.646364948685004L176.8309375,43.955892612318706L177.58234375,44.640842497904L178.33375,44.81089876283073L179.08515625,46.02316350893463L179.8365625,43.15556373622357L180.58796875,44.743958560614146L181.33937500000002,43.761475812216275L182.09078125,41.97182054231783L182.8421875,41.71252001945146L183.59359375,43.761159801444734L184.345,45.79475197722897L185.09640625,47.336206097572784L185.84781249999997,48.794420572951935L186.59921875,49.12250380541562L187.35062499999998,49.337289859958375L188.10203125,50.209540865927906L188.85343749999998,50.46120688926092L189.60484375000001,52.22857054041978L190.35625,50.45959932891982L191.10765625000002,46.58780393889663L191.8590625,45.60133828736264L192.61046875000002,44.28582060501648L193.361875,43.32808268861456L194.11328125,43.28228615156584L194.8646875,46.39311322019378L195.61609375,45.51274211956718L196.3675,44.106429716045284L197.11890625,42.776058627651736L197.8703125,44.38493570946369L198.62171875,42.94394550490574L199.373125,42.2498305901384L200.12453125000002,43.313642167064614L200.8759375,41.45260147053489L201.62734375,42.17714238034665L202.37875,44.39184101807584L203.13015625,46.295785084425404L203.8815625,42.93558724219625L204.63296874999997,44.24910786278437L205.384375,42.911033875737076L206.13578124999998,42.40985740368458L206.8871875,43.178285986091026L207.63859374999998,38.170411797714706L208.39000000000001,39.93241174504888L209.14140625,41.31252294708989L209.89281250000002,38.79490373245099L210.64421875,38.03809822774801L211.39562500000002,39.23376220174225L212.14703125,38.739998396773046L212.8984375,39.228698735270996L213.64984375,37.970568037189906L214.40125,36.87595649278438L215.15265625,35.55371366524349L215.9040625,37.45701448172119L216.65546875,39.25753691178315L217.406875,39.81387045513992L218.15828125,39.95784162844842L218.90968750000002,40.76309854828193L219.66109375,41.90719184349254L220.4125,40.02652261591854L221.16390625,41.01923105592357L221.9153125,41.95833318983725L222.66671875,42.36882355713092L223.41812499999997,44.47758785524272L224.16953125,48.67081970855563L224.92093749999998,47.57187495143455L225.67234375,50.45105474525256L226.42374999999998,49.638297523134526L227.17515625000001,50.11196978577303L227.9265625,47.88382276504967L228.67796875000002,48.83455641673086L229.429375,48.586990305368204L230.18078125000002,48.25721283829844L230.9321875,49.952423742483774L231.68359375,51.55609321607707L232.435,51.44830434209716L233.18640625,53.544676232577984L233.9378125,50.65326317309709L234.68921875,51.45444692176035L235.440625,51.16098664752043L236.19203125,52.12591361309576L236.9434375,51.796194137253025L237.69484375000002,49.47709932392698L238.44625,49.003676079026974L239.19765625,47.88675733741158L239.9490625,45.87435210767322L240.70046875,47.69823730165851L241.451875,46.36507252598474L242.20328124999997,46.442018435122606L242.9546875,45.941329300180286L243.70609374999998,45.84999750963689L244.4575,46.432657512106346L245.20890624999998,47.07943424157094L245.96031250000001,47.21338498517787L246.71171875,43.6124815682289L247.46312500000002,41.54414760286468L248.21453125,37.10242315952959L248.96593750000002,38.06187227711979L249.71734375,37.05791102424635L250.46875,34.77004351996584L251.22015625,34.80406117166933L251.9715625,35.79204191735033L252.72296875,32.712311691767354L253.474375,31.328166890191028L254.22578125,29.062965418496447L254.9771875,31.50792542849132L255.72859375,30.188817496988463L256.48,32.57298148239087L257.23140625,35.401880531797644L257.98281249999997,35.210619159306816L258.73421875,36.75012567983447L259.48562499999997,34.09655899996105L260.23703125000003,33.115564878722694L260.9884375,33.430084200972146L261.73984375,29.999999753838523L262.49125,32.012039995263194L263.24265625,32.48173002794363L263.9940625,31.39677640201549L264.74546875,33.90687061585979L265.496875,35.32561971963531L266.24828125,35.329636254844274L266.9996875,32.84835549196853L267.75109375,33.559624215234095L268.5025,34.61480452302655L269.25390625,35.80416491291581L270.0053125,35.9734998275278L270.75671875,37.089490668339295L271.508125,37.95405818236438L272.25953125,38.9630988693805L273.0109375,38.77069152841938L273.76234375,40.40469429322184L274.51375,41.85488099728076L275.26515625,41.02841741610166" style="fill: none;" fill="none"></path></g></g></g></g><g opacity="0.2"><g><g><g><path stroke="rgb(204, 51, 17)" stroke-width="2px" d="M25.79828125,139.82999997362495L26.5496875,136.28999978899955L27.30109375,145.1400000527501L28.052500000000002,145.1400000527501L28.80390625,127.43999978899956L29.5553125,139.82999997362495L29.5553125,139.82999997362495L30.306718749999998,132.75L31.058125,139.82999997362495L31.80953125,136.28999978899955L32.5609375,113.27999957799912L33.312343750000004,116.82000042200087L34.06375,141.6L34.81515625,115.05000000000001L35.566562499999996,130.9799995779991L36.31796875,132.75L37.069375,116.82000042200087L37.820781249999996,134.5199998944998L38.5721875,132.75L39.32359375,138.05999994724988L40.075,115.05000000000001L40.82640625,122.12999957799911L41.5778125,120.35999915599822L42.32921875,129.21000021100045L43.080625000000005,111.50999915599823L43.83203125,100.89000084400178L44.5834375,113.27999957799912L45.334843750000005,125.6700004220009L46.08625,123.9L46.837656249999995,99.11999831199645L47.5890625,74.34000084400178L48.34046875,104.43000168800354L49.091875,65.48999662399292L49.84328125,127.43999978899956L50.5946875,69.03000168800354L51.34609375,127.43999978899956L52.097500000000004,116.82000042200087L52.848906250000006,123.9L53.6003125,106.2L54.35171875,84.95999915599823L55.103125,77.88000168800353L55.854531249999994,113.27999957799912L56.605937499999996,76.10999915599824L57.35734375,107.97000042200088L58.10875,31.860003376007086L58.86015625,81.41999831199645L59.6115625,100.89000084400178L60.36296875,104.43000168800354L61.114375,90.26999831199646L61.865781250000005,113.27999957799912L62.6171875,60.18000168800354L63.36859375,106.2L64.12,40.71000337600708L64.87140624999999,125.6700004220009L65.6228125,86.73000168800354L66.37421875,83.19000084400177L67.125625,65.48999662399292L67.87703125,84.95999915599823L68.6284375,86.73000168800354L69.37984375,74.34000084400178L70.13125,113.27999957799912L70.88265625,44.25L71.6340625,69.03000168800354L72.38546875,93.80999915599823L73.136875,113.27999957799912L73.88828124999999,125.6700004220009L74.6396875,100.89000084400178L75.39109375000001,97.35L76.14250000000001,92.04000084400177L76.89390625,69.03000168800354L77.6453125,81.41999831199645L78.39671874999999,58.41000337600708L79.148125,102.65999915599824L79.89953125,65.48999662399292L80.6509375,3.53999662399292L81.40234375,99.11999831199645L82.15374999999999,127.43999978899956L82.90515624999999,118.59000084400176L83.65656249999999,111.50999915599823L84.40796875,58.41000337600708L85.159375,107.97000042200088L85.91078125,97.35L86.6621875,58.41000337600708L87.41359375,92.04000084400177L88.165,99.11999831199645L88.91640625,111.50999915599823L89.6678125,58.41000337600708L90.41921875,111.50999915599823L91.170625,86.73000168800354L91.92203125,92.04000084400177L92.6734375,79.64999999999999L93.42484375000001,79.64999999999999L94.17625000000001,69.03000168800354L94.92765625000001,28.31999831199647L95.6790625,67.26000337600708L96.43046875,46.01999831199646L97.18187499999999,74.34000084400178L97.93328125,79.64999999999999L98.6846875,106.2L99.43609375,99.11999831199645L100.1875,72.56999831199646L100.93890624999999,72.56999831199646L101.69031249999999,67.26000337600708L102.44171874999999,65.48999662399292L103.193125,83.19000084400177L103.94453125,93.80999915599823L104.6959375,72.56999831199646L105.44734375,51.33000168800355L106.19875,21.23999662399291L106.95015625,54.86999831199647L107.7015625,74.34000084400178L108.45296875,33.630001688003546L109.204375,81.41999831199645L109.95578125,46.01999831199646L110.7071875,46.01999831199646L111.45859375,14.160003376007069L112.21000000000001,69.03000168800354L112.96140625000001,28.31999831199647L113.71281250000001,31.860003376007086L114.46421875,70.8L115.215625,69.03000168800354L115.96703124999999,42.48000168800354L116.7184375,56.63999662399293L117.46984375,33.630001688003546L118.22125,31.860003376007086L118.97265625,42.48000168800354L119.72406249999999,24.78000168800355L120.47546874999999,60.18000168800354L121.22687499999999,17.69999999999999L121.97828125,21.23999662399291L122.7296875,79.64999999999999L123.48109375,8.849999999999994L124.2325,53.10000000000001L124.98390625,63.71999831199646L125.7353125,3.53999662399292L126.48671875,-5.310003376007074L127.238125,31.860003376007086L127.98953125,51.33000168800355L128.7409375,35.400000000000006L129.49234375,63.71999831199646L130.24375,60.18000168800354L130.99515625,47.78999662399292L131.7465625,60.18000168800354L132.49796875,28.31999831199647L133.24937500000001,10.619998311996454L134.00078125000002,26.55000000000001L134.7521875,84.95999915599823L135.50359375,33.630001688003546L136.255,46.01999831199646L137.00640625,5.310003376007074L137.7578125,7.080001688003534L138.50921875,90.26999831199646L139.260625,58.41000337600708L140.01203125,30.08999662399293L140.7634375,33.630001688003546L141.51484375,69.03000168800354L142.26624999999999,63.71999831199646L143.01765625,24.78000168800355L143.7690625,72.56999831199646L144.52046875,28.31999831199647L145.271875,61.95L146.02328125,63.71999831199646L146.7746875,83.19000084400177L147.52609375,31.860003376007086L148.2775,31.860003376007086L149.02890625,47.78999662399292L149.7803125,93.80999915599823L150.53171875,51.33000168800355L151.28312499999998,47.78999662399292L152.03453125000001,24.78000168800355L152.7859375,88.5L153.53734375000002,37.169998311996466L154.28875,53.10000000000001L155.04015625000002,49.56000337600709L155.7915625,51.33000168800355L156.54296875,-24.779993247985857L157.294375,24.78000168800355L158.04578125,10.619998311996454L158.7971875,-3.53999662399292L159.54859375,1.76999831199646L160.3,19.46999831199645L161.05140625,-24.779993247985857L161.8028125,30.08999662399293L162.55421875000002,81.41999831199645L163.305625,74.34000084400178L164.05703125,42.48000168800354L164.8084375,44.25L165.55984375,46.01999831199646L166.31125,84.95999915599823L167.06265624999997,38.939996623992926L167.8140625,72.56999831199646L168.56546874999998,53.10000000000001L169.316875,76.10999915599824L170.06828124999998,44.25L170.81968750000001,28.31999831199647L171.57109375,84.95999915599823L172.32250000000002,56.63999662399293L173.07390625,10.619998311996454L173.82531250000002,58.41000337600708L174.57671875,44.25L175.328125,69.03000168800354L176.07953125,0L176.8309375,31.860003376007086L177.58234375,56.63999662399293L178.33375,47.78999662399292L179.08515625,67.26000337600708L179.8365625,-7.07999324798584L180.58796875,72.56999831199646L181.33937500000002,26.55000000000001L182.09078125,10.619998311996454L182.8421875,37.169998311996466L183.59359375,79.64999999999999L184.345,81.41999831199645L185.09640625,74.34000084400178L185.84781249999997,74.34000084400178L186.59921875,54.86999831199647L187.35062499999998,53.10000000000001L188.10203125,65.48999662399292L188.85343749999998,54.86999831199647L189.60484375000001,83.19000084400177L190.35625,19.46999831199645L191.10765625000002,-21.239996623992937L191.8590625,28.31999831199647L192.61046875000002,21.23999662399291L193.361875,26.55000000000001L194.11328125,42.48000168800354L194.8646875,100.89000084400178L195.61609375,30.08999662399293L196.3675,19.46999831199645L197.11890625,19.46999831199645L197.8703125,72.56999831199646L198.62171875,17.69999999999999L199.373125,30.08999662399293L200.12453125000002,61.95L200.8759375,8.849999999999994L201.62734375,54.86999831199647L202.37875,83.19000084400177L203.13015625,79.64999999999999L203.8815625,-15.929993247985834L204.63296874999997,67.26000337600708L205.384375,19.46999831199645L206.13578124999998,33.630001688003546L206.8871875,56.63999662399293L207.63859374999998,-49.560003376007074L208.39000000000001,70.8L209.14140625,65.48999662399292L209.89281250000002,-5.310003376007074L210.64421875,24.78000168800355L211.39562500000002,60.18000168800354L212.14703125,30.08999662399293L212.8984375,47.78999662399292L213.64984375,15.930001688003529L214.40125,17.69999999999999L215.15265625,12.389996623992914L215.9040625,70.8L216.65546875,70.8L217.406875,49.56000337600709L218.15828125,42.48000168800354L218.90968750000002,54.86999831199647L219.66109375,61.95L220.4125,7.080001688003534L221.16390625,58.41000337600708L221.9153125,58.41000337600708L222.66671875,49.56000337600709L223.41812499999997,81.41999831199645L224.16953125,122.12999957799911L224.92093749999998,28.31999831199647L225.67234375,100.89000084400178L226.42374999999998,35.400000000000006L227.17515625000001,58.41000337600708L227.9265625,8.849999999999994L228.67796875000002,65.48999662399292L229.429375,44.25L230.18078125000002,42.48000168800354L230.9321875,79.64999999999999L231.68359375,79.64999999999999L232.435,49.56000337600709L233.18640625,90.26999831199646L233.9378125,0L234.68921875,65.48999662399292L235.440625,46.01999831199646L236.19203125,69.03000168800354L236.9434375,46.01999831199646L237.69484375000002,8.849999999999994L238.44625,40.71000337600708L239.19765625,28.31999831199647L239.9490625,10.619998311996454L240.70046875,79.64999999999999L241.451875,23.01000337600709L242.20328124999997,47.78999662399292L242.9546875,37.169998311996466L243.70609374999998,44.25L244.4575,56.63999662399293L245.20890624999998,58.41000337600708L245.96031250000001,49.56000337600709L246.71171875,-19.470006752014143L247.46312500000002,5.310003376007074L248.21453125,-40.71000337600708L248.96593750000002,54.86999831199647L249.71734375,19.46999831199645L250.46875,-5.310003376007074L251.22015625,35.400000000000006L251.9715625,53.10000000000001L252.72296875,-21.239996623992937L253.474375,7.080001688003534L254.22578125,-10.620006752014177L254.9771875,74.34000084400178L255.72859375,7.080001688003534L256.48,74.34000084400178L257.23140625,84.95999915599823L257.98281249999997,31.860003376007086L258.73421875,63.71999831199646L259.48562499999997,-12.389996623992914L260.23703125000003,15.930001688003529L260.9884375,38.939996623992926L261.73984375,-30.089996623992903L262.49125,67.26000337600708L263.24265625,40.71000337600708L263.9940625,12.389996623992914L264.74546875,77.88000168800353L265.496875,60.18000168800354L266.24828125,35.400000000000006L266.9996875,-10.620006752014177L267.75109375,46.01999831199646L268.5025,53.10000000000001L269.25390625,56.63999662399293L270.0053125,38.939996623992926L270.75671875,56.63999662399293L271.508125,53.10000000000001L272.25953125,56.63999662399293L273.0109375,35.400000000000006L273.76234375,69.03000168800354L274.51375,67.26000337600708L275.26515625,26.55000000000001" style="fill: none;" fill="none"></path></g></g></g></g></g></g><g transform="translate(29, 177)" clip-path="url(#clip_1)"><clipPath id="clip_1"><rect width="300" height="23"></rect></clipPath><g><g><line x1="0" y1="0" x2="0" y2="5" style="visibility: inherit;" fill="rgb(0, 0, 0)" stroke="rgb(204, 204, 204)" stroke-width="1px"></line><line x1="25.046875" y1="0" x2="25.046875" y2="5" style="visibility: inherit;" fill="rgb(0, 0, 0)" stroke="rgb(204, 204, 204)" stroke-width="1px"></line><line x1="50.09375" y1="0" x2="50.09375" y2="5" style="visibility: inherit;" fill="rgb(0, 0, 0)" stroke="rgb(204, 204, 204)" stroke-width="1px"></line><line x1="75.140625" y1="0" x2="75.140625" y2="5" style="visibility: inherit;" fill="rgb(0, 0, 0)" stroke="rgb(204, 204, 204)" stroke-width="1px"></line><line x1="100.1875" y1="0" x2="100.1875" y2="5" style="visibility: inherit;" fill="rgb(0, 0, 0)" stroke="rgb(204, 204, 204)" stroke-width="1px"></line><line x1="125.234375" y1="0" x2="125.234375" y2="5" style="visibility: inherit;" fill="rgb(0, 0, 0)" stroke="rgb(204, 204, 204)" stroke-width="1px"></line><line x1="150.28125" y1="0" x2="150.28125" y2="5" style="visibility: inherit;" fill="rgb(0, 0, 0)" stroke="rgb(204, 204, 204)" stroke-width="1px"></line><line x1="175.328125" y1="0" x2="175.328125" y2="5" style="visibility: inherit;" fill="rgb(0, 0, 0)" stroke="rgb(204, 204, 204)" stroke-width="1px"></line><line x1="200.375" y1="0" x2="200.375" y2="5" style="visibility: inherit;" fill="rgb(0, 0, 0)" stroke="rgb(204, 204, 204)" stroke-width="1px"></line><line x1="225.421875" y1="0" x2="225.421875" y2="5" style="visibility: inherit;" fill="rgb(0, 0, 0)" stroke="rgb(204, 204, 204)" stroke-width="1px"></line><line x1="250.46875" y1="0" x2="250.46875" y2="5" style="visibility: inherit;" fill="rgb(0, 0, 0)" stroke="rgb(204, 204, 204)" stroke-width="1px"></line><line x1="275.515625" y1="0" x2="275.515625" y2="5" style="visibility: inherit;" fill="rgb(0, 0, 0)" stroke="rgb(204, 204, 204)" stroke-width="1px"></line><line x1="300.5625" y1="0" x2="300.5625" y2="5" style="visibility: inherit;" fill="rgb(0, 0, 0)" stroke="rgb(204, 204, 204)" stroke-width="1px"></line></g><g transform="translate(0, 8)"><text x="0" y="0" dx="0em" dy="0.95em" style="text-anchor: middle; visibility: hidden; font-family: &quot;Helvetica Neue&quot;, sans-serif; font-size: 12px; font-weight: 200;" fill="rgb(50, 49, 63)" stroke="none" stroke-width="1px">-50k</text><text x="25.046875" y="0" dx="0em" dy="0.95em" style="text-anchor: middle; visibility: inherit; font-family: &quot;Helvetica Neue&quot;, sans-serif; font-size: 12px; font-weight: 200;" fill="rgb(50, 49, 63)" stroke="none" stroke-width="1px">0</text><text x="50.09375" y="0" dx="0em" dy="0.95em" style="text-anchor: middle; visibility: hidden; font-family: &quot;Helvetica Neue&quot;, sans-serif; font-size: 12px; font-weight: 200;" fill="rgb(50, 49, 63)" stroke="none" stroke-width="1px">50k</text><text x="75.140625" y="0" dx="0em" dy="0.95em" style="text-anchor: middle; visibility: inherit; font-family: &quot;Helvetica Neue&quot;, sans-serif; font-size: 12px; font-weight: 200;" fill="rgb(50, 49, 63)" stroke="none" stroke-width="1px">100k</text><text x="100.1875" y="0" dx="0em" dy="0.95em" style="text-anchor: middle; visibility: hidden; font-family: &quot;Helvetica Neue&quot;, sans-serif; font-size: 12px; font-weight: 200;" fill="rgb(50, 49, 63)" stroke="none" stroke-width="1px">150k</text><text x="125.234375" y="0" dx="0em" dy="0.95em" style="text-anchor: middle; visibility: inherit; font-family: &quot;Helvetica Neue&quot;, sans-serif; font-size: 12px; font-weight: 200;" fill="rgb(50, 49, 63)" stroke="none" stroke-width="1px">200k</text><text x="150.28125" y="0" dx="0em" dy="0.95em" style="text-anchor: middle; visibility: hidden; font-family: &quot;Helvetica Neue&quot;, sans-serif; font-size: 12px; font-weight: 200;" fill="rgb(50, 49, 63)" stroke="none" stroke-width="1px">250k</text><text x="175.328125" y="0" dx="0em" dy="0.95em" style="text-anchor: middle; visibility: inherit; font-family: &quot;Helvetica Neue&quot;, sans-serif; font-size: 12px; font-weight: 200;" fill="rgb(50, 49, 63)" stroke="none" stroke-width="1px">300k</text><text x="200.375" y="0" dx="0em" dy="0.95em" style="text-anchor: middle; visibility: hidden; font-family: &quot;Helvetica Neue&quot;, sans-serif; font-size: 12px; font-weight: 200;" fill="rgb(50, 49, 63)" stroke="none" stroke-width="1px">350k</text><text x="225.421875" y="0" dx="0em" dy="0.95em" style="text-anchor: middle; visibility: inherit; font-family: &quot;Helvetica Neue&quot;, sans-serif; font-size: 12px; font-weight: 200;" fill="rgb(50, 49, 63)" stroke="none" stroke-width="1px">400k</text><text x="250.46875" y="0" dx="0em" dy="0.95em" style="text-anchor: middle; visibility: hidden; font-family: &quot;Helvetica Neue&quot;, sans-serif; font-size: 12px; font-weight: 200;" fill="rgb(50, 49, 63)" stroke="none" stroke-width="1px">450k</text><text x="275.515625" y="0" dx="0em" dy="0.95em" style="text-anchor: middle; visibility: inherit; font-family: &quot;Helvetica Neue&quot;, sans-serif; font-size: 12px; font-weight: 200;" fill="rgb(50, 49, 63)" stroke="none" stroke-width="1px">500k</text><text x="300.5625" y="0" dx="0em" dy="0.95em" style="text-anchor: middle; visibility: hidden; font-family: &quot;Helvetica Neue&quot;, sans-serif; font-size: 12px; font-weight: 200;" fill="rgb(50, 49, 63)" stroke="none" stroke-width="1px">550k</text></g><line x1="0" y1="0" x2="300.5625" y2="0" fill="rgb(0, 0, 0)" stroke="rgb(204, 204, 204)" stroke-width="1px"></line></g></g></g></g></svg>