<svg viewBox="0 0 330 200" xmlns="http://www.w3.org/2000/svg"><g><g><g><g><g><line x1="29.4375" y1="177" x2="24.4375" y2="177" style="visibility: inherit;" fill="rgb(0, 0, 0)" stroke="rgb(204, 204, 204)" stroke-width="1px"></line><line x1="29.4375" y1="160.9090909090909" x2="24.4375" y2="160.9090909090909" style="visibility: inherit;" fill="rgb(0, 0, 0)" stroke="rgb(204, 204, 204)" stroke-width="1px"></line><line x1="29.4375" y1="144.8181818181818" x2="24.4375" y2="144.8181818181818" style="visibility: inherit;" fill="rgb(0, 0, 0)" stroke="rgb(204, 204, 204)" stroke-width="1px"></line><line x1="29.4375" y1="128.72727272727275" x2="24.4375" y2="128.72727272727275" style="visibility: inherit;" fill="rgb(0, 0, 0)" stroke="rgb(204, 204, 204)" stroke-width="1px"></line><line x1="29.4375" y1="112.63636363636364" x2="24.4375" y2="112.63636363636364" style="visibility: inherit;" fill="rgb(0, 0, 0)" stroke="rgb(204, 204, 204)" stroke-width="1px"></line><line x1="29.4375" y1="96.54545454545455" x2="24.4375" y2="96.54545454545455" style="visibility: inherit;" fill="rgb(0, 0, 0)" stroke="rgb(204, 204, 204)" stroke-width="1px"></line><line x1="29.4375" y1="80.45454545454547" x2="24.4375" y2="80.45454545454547" style="visibility: inherit;" fill="rgb(0, 0, 0)" stroke="rgb(204, 204, 204)" stroke-width="1px"></line><line x1="29.4375" y1="64.36363636363636" x2="24.4375" y2="64.36363636363636" style="visibility: inherit;" fill="rgb(0, 0, 0)" stroke="rgb(204, 204, 204)" stroke-width="1px"></line><line x1="29.4375" y1="48.27272727272728" x2="24.4375" y2="48.27272727272728" style="visibility: inherit;" fill="rgb(0, 0, 0)" stroke="rgb(204, 204, 204)" stroke-width="1px"></line><line x1="29.4375" y1="32.18181818181819" x2="24.4375" y2="32.18181818181819" style="visibility: inherit;" fill="rgb(0, 0, 0)" stroke="rgb(204, 204, 204)" stroke-width="1px"></line><line x1="29.4375" y1="16.090909090909093" x2="24.4375" y2="16.090909090909093" style="visibility: inherit;" fill="rgb(0, 0, 0)" stroke="rgb(204, 204, 204)" stroke-width="1px"></line><line x1="29.4375" y1="0" x2="24.4375" y2="0" style="visibility: inherit;" fill="rgb(0, 0, 0)" stroke="rgb(204, 204, 204)" stroke-width="1px"></line></g><g transform="translate(19.4375, 0)"><text x="0" y="177" dx="0em" dy="0.3em" style="text-anchor: end; visibility: hidden; font-family: &quot;Helvetica Neue&quot;, sans-serif; font-size: 12px; font-weight: 200;" fill="rgb(50, 49, 63)" stroke="none" stroke-width="1px">-2</text><text x="0" y="160.9090909090909" dx="0em" dy="0.3em" style="text-anchor: end; visibility: inherit; font-family: &quot;Helvetica Neue&quot;, sans-serif; font-size: 12px; font-weight: 200;" fill="rgb(50, 49, 63)" stroke="none" stroke-width="1px">-1</text><text x="0" y="144.8181818181818" dx="0em" dy="0.3em" style="text-anchor: end; visibility: hidden; font-family: &quot;Helvetica Neue&quot;, sans-serif; font-size: 12px; font-weight: 200;" fill="rgb(50, 49, 63)" stroke="none" stroke-width="1px">0</text><text x="0" y="128.72727272727275" dx="0em" dy="0.3em" style="text-anchor: end; visibility: inherit; font-family: &quot;Helvetica Neue&quot;, sans-serif; font-size: 12px; font-weight: 200;" fill="rgb(50, 49, 63)" stroke="none" stroke-width="1px">1</text><text x="0" y="112.63636363636364" dx="0em" dy="0.3em" style="text-anchor: end; visibility: hidden; font-family: &quot;Helvetica Neue&quot;, sans-serif; font-size: 12px; font-weight: 200;" fill="rgb(50, 49, 63)" stroke="none" stroke-width="1px">2</text><text x="0" y="96.54545454545455" dx="0em" dy="0.3em" style="text-anchor: end; visibility: inherit; font-family: &quot;Helvetica Neue&quot;, sans-serif; font-size: 12px; font-weight: 200;" fill="rgb(50, 49, 63)" stroke="none" stroke-width="1px">3</text><text x="0" y="80.45454545454547" dx="0em" dy="0.3em" style="text-anchor: end; visibility: hidden; font-family: &quot;Helvetica Neue&quot;, sans-serif; font-size: 12px; font-weight: 200;" fill="rgb(50, 49, 63)" stroke="none" stroke-width="1px">4</text><text x="0" y="64.36363636363636" dx="0em" dy="0.3em" style="text-anchor: end; visibility: inherit; font-family: &quot;Helvetica Neue&quot;, sans-serif; font-size: 12px; font-weight: 200;" fill="rgb(50, 49, 63)" stroke="none" stroke-width="1px">5</text><text x="0" y="48.27272727272728" dx="0em" dy="0.3em" style="text-anchor: end; visibility: hidden; font-family: &quot;Helvetica Neue&quot;, sans-serif; font-size: 12px; font-weight: 200;" fill="rgb(50, 49, 63)" stroke="none" stroke-width="1px">6</text><text x="0" y="32.18181818181819" dx="0em" dy="0.3em" style="text-anchor: end; visibility: inherit; font-family: &quot;Helvetica Neue&quot;, sans-serif; font-size: 12px; font-weight: 200;" fill="rgb(50, 49, 63)" stroke="none" stroke-width="1px">7</text><text x="0" y="16.090909090909093" dx="0em" dy="0.3em" style="text-anchor: end; visibility: hidden; font-family: &quot;Helvetica Neue&quot;, sans-serif; font-size: 12px; font-weight: 200;" fill="rgb(50, 49, 63)" stroke="none" stroke-width="1px">8</text><text x="0" y="0" dx="0em" dy="0.3em" style="text-anchor: end; visibility: hidden; font-family: &quot;Helvetica Neue&quot;, sans-serif; font-size: 12px; font-weight: 200;" fill="rgb(50, 49, 63)" stroke="none" stroke-width="1px">9</text></g><line x1="29.4375" y1="0" x2="29.4375" y2="177" fill="rgb(0, 0, 0)" stroke="rgb(204, 204, 204)" stroke-width="1px"></line></g></g><g transform="translate(29, 0)" clip-path="url(#clip_0)"><clipPath id="clip_0"><rect width="300" height="177"></rect></clipPath><g><g><g><line x1="0" y1="0" x2="0" y2="177" fill="rgb(0, 0, 0)" stroke="rgb(60, 60, 60)" stroke-width="1px" opacity="0.25"></line><line x1="25.046875" y1="0" x2="25.046875" y2="177" fill="rgb(0, 0, 0)" stroke="rgb(60, 60, 60)" stroke-width="1px" opacity="0.25"></line><line x1="50.09375" y1="0" x2="50.09375" y2="177" fill="rgb(0, 0, 0)" stroke="rgb(60, 60, 60)" stroke-width="1px" opacity="0.25"></line><line x1="75.140625" y1="0" x2="75.140625" y2="177" fill="rgb(0, 0, 0)" stroke="rgb(60, 60, 60)" stroke-width="1px" opacity="0.25"></line><line x1="100.1875" y1="0" x2="100.1875" y2="177" fill="rgb(0, 0, 0)" stroke="rgb(60, 60, 60)" stroke-width="1px" opacity="0.25"></line><line x1="125.234375" y1="0" x2="125.234375" y2="177" fill="rgb(0, 0, 0)" stroke="rgb(60, 60, 60)" stroke-width="1px" opacity="0.25"></line><line x1="150.28125" y1="0" x2="150.28125" y2="177" fill="rgb(0, 0, 0)" stroke="rgb(60, 60, 60)" stroke-width="1px" opacity="0.25"></line><line x1="175.328125" y1="0" x2="175.328125" y2="177" fill="rgb(0, 0, 0)" stroke="rgb(60, 60, 60)" stroke-width="1px" opacity="0.25"></line><line x1="200.375" y1="0" x2="200.375" y2="177" fill="rgb(0, 0, 0)" stroke="rgb(60, 60, 60)" stroke-width="1px" opacity="0.25"></line><line x1="225.421875" y1="0" x2="225.421875" y2="177" fill="rgb(0, 0, 0)" stroke="rgb(60, 60, 60)" stroke-width="1px" opacity="0.25"></line><line x1="250.46875" y1="0" x2="250.46875" y2="177" fill="rgb(0, 0, 0)" stroke="rgb(60, 60, 60)" stroke-width="1px" opacity="0.25"></line><line x1="275.515625" y1="0" x2="275.515625" y2="177" fill="rgb(0, 0, 0)" stroke="rgb(60, 60, 60)" stroke-width="1px" opacity="0.25"></line><line x1="300.5625" y1="0" x2="300.5625" y2="177" fill="rgb(0, 0, 0)" stroke="rgb(60, 60, 60)" stroke-width="1px" opacity="0.25"></line></g><g><line x1="0" y1="177" x2="300.5625" y2="177" fill="rgb(0, 0, 0)" stroke="rgb(60, 60, 60)" stroke-width="1px" opacity="0.25"></line><line x1="0" y1="160.9090909090909" x2="300.5625" y2="160.9090909090909" fill="rgb(0, 0, 0)" stroke="rgb(60, 60, 60)" stroke-width="1px" opacity="0.25"></line><line x1="0" y1="144.8181818181818" x2="300.5625" y2="144.8181818181818" fill="rgb(0, 0, 0)" stroke="rgb(60, 60, 60)" stroke-width="1px" opacity="0.25"></line><line x1="0" y1="128.72727272727275" x2="300.5625" y2="128.72727272727275" fill="rgb(0, 0, 0)" stroke="rgb(60, 60, 60)" stroke-width="1px" opacity="0.25"></line><line x1="0" y1="112.63636363636364" x2="300.5625" y2="112.63636363636364" fill="rgb(0, 0, 0)" stroke="rgb(60, 60, 60)" stroke-width="1px" opacity="0.25"></line><line x1="0" y1="96.54545454545455" x2="300.5625" y2="96.54545454545455" fill="rgb(0, 0, 0)" stroke="rgb(60, 60, 60)" stroke-width="1px" opacity="0.25"></line><line x1="0" y1="80.45454545454547" x2="300.5625" y2="80.45454545454547" fill="rgb(0, 0, 0)" stroke="rgb(60, 60, 60)" stroke-width="1px" opacity="0.25"></line><line x1="0" y1="64.36363636363636" x2="300.5625" y2="64.36363636363636" fill="rgb(0, 0, 0)" stroke="rgb(60, 60, 60)" stroke-width="1px" opacity="0.25"></line><line x1="0" y1="48.27272727272728" x2="300.5625" y2="48.27272727272728" fill="rgb(0, 0, 0)" stroke="rgb(60, 60, 60)" stroke-width="1px" opacity="0.25"></line><line x1="0" y1="32.18181818181819" x2="300.5625" y2="32.18181818181819" fill="rgb(0, 0, 0)" stroke="rgb(60, 60, 60)" stroke-width="1px" opacity="0.25"></line><line x1="0" y1="16.090909090909093" x2="300.5625" y2="16.090909090909093" fill="rgb(0, 0, 0)" stroke="rgb(60, 60, 60)" stroke-width="1px" opacity="0.25"></line><line x1="0" y1="0" x2="300.5625" y2="0" fill="rgb(0, 0, 0)" stroke="rgb(60, 60, 60)" stroke-width="1px" opacity="0.25"></line></g></g></g><g><g><line x1="0" y1="144.8181818181818" x2="300.5625" y2="144.8181818181818" fill="rgb(0, 0, 0)" stroke="rgb(153, 153, 153)" stroke-width="1.5px"></line></g></g><g><g><line x1="25.046875" y1="0" x2="25.046875" y2="177" fill="rgb(0, 0, 0)" stroke="rgb(153, 153, 153)" stroke-width="1.5px"></line></g></g><g><g><g><g><g><path stroke="rgb(204, 51, 17)" stroke-width="2px" d="M25.79828125,146.42727275125006L26.5496875,149.73475662195216L27.30109375,145.17213338732472L28.052500000000002,145.51250956067432L28.80390625,141.7728011560568L29.5553125,141.12640818775634L29.5553125,142.01540865862208L30.306718749999998,140.01440547655864L31.058125,140.01117887196165L31.80953125,140.8244852135305L32.5609375,141.29639154288782L33.312343750000004,141.8661156866235L34.06375,141.83816113637698L34.81515625,140.04533617271295L35.566562499999996,139.88637949727246L36.31796875,139.89596925642985L37.069375,140.18886774423464L37.820781249999996,139.6218646331441L38.5721875,138.5858346944468L39.32359375,136.7551946131283L40.075,134.8630171862263L40.82640625,133.16090591574007L41.5778125,128.3702719079473L42.32921875,128.63253457203368L43.080625000000005,122.849562779134L43.83203125,117.12244943665819L44.5834375,114.34905722792783L45.334843750000005,108.94346971372616L46.08625,109.51851900921784L46.837656249999995,111.01202275665354L47.5890625,111.64796582466026L48.34046875,109.30657989821496L49.091875,108.69302761017966L49.84328125,110.58238478504273L50.5946875,111.7260787972028L51.34609375,110.97882041405987L52.097500000000004,106.89530128894127L52.848906250000006,107.05034352214216L53.6003125,107.19478101277952L54.35171875,107.42693709816558L55.103125,107.74044041208364L55.854531249999994,106.20470100647115L56.605937499999996,106.49147466500597L57.35734375,105.33226473086329L58.10875,106.424774185914L58.86015625,106.88272018479684L59.6115625,107.87466113067819L60.36296875,106.75013243553536L61.114375,106.53229534578283L61.865781250000005,105.58651049568086L62.6171875,106.268048606101L63.36859375,106.35617928320804L64.12,105.61343798365297L64.87140624999999,106.0125948514927L65.6228125,105.11125542790742L66.37421875,103.17183626537441L67.125625,104.34053086415726L67.87703125,104.89766285615855L68.6284375,104.60953198186954L69.37984375,105.68985596934372L70.13125,105.80830226461765L70.88265625,103.85534493002388L71.6340625,103.44828549476249L72.38546875,102.79618109959335L73.136875,102.80648478558516L73.88828124999999,98.98159674618296L74.6396875,98.40152393779829L75.39109375000001,98.74359798447463L76.14250000000001,96.84589723125863L76.89390625,94.96637863671549L77.6453125,91.42025237103057L78.39671874999999,91.43664171130199L79.148125,92.86695846865987L79.89953125,93.0689177913247L80.6509375,94.93662793242508L81.40234375,93.34922033437904L82.15374999999999,93.96484053156809L82.90515624999999,91.81674473746489L83.65656249999999,92.25128988499783L84.40796875,92.31008576478911L85.159375,90.16887186625164L85.91078125,88.84835426428859L86.6621875,88.74158718003112L87.41359375,89.25472960885817L88.165,90.8794063222754L88.91640625,91.9766582963875L89.6678125,90.56113638463844L90.41921875,90.88675063212861L91.170625,89.09412129216346L91.92203125,90.28657730039818L92.6734375,89.05262441770788L93.42484375000001,88.93518096499503L94.17625000000001,88.73676312906102L94.92765625000001,87.15135306648708L95.6790625,86.7005243229521L96.43046875,87.40936878558455L97.18187499999999,87.46853420765004L97.93328125,86.38997212364389L98.6846875,86.50438318835843L99.43609375,86.61256652007675L100.1875,85.6683291296802L100.93890624999999,85.21141559956335L101.69031249999999,84.95369751707871L102.44171874999999,86.627548037015L103.193125,87.3389895555744L103.94453125,86.00772519823468L104.6959375,84.0517773026464L105.44734375,84.29258098938423L106.19875,83.03968478518583L106.95015625,81.593500711995L107.7015625,81.00942038598814L108.45296875,81.41472000542102L109.204375,80.92749679958618L109.95578125,78.02938471085575L110.7071875,78.24760266095981L111.45859375,77.93181864158153L112.21000000000001,78.2422968800885L112.96140625000001,79.40611281334463L113.71281250000001,80.50690763599096L114.46421875,79.19904342995933L115.215625,76.3960484205304L115.96703124999999,74.96263897913184L116.7184375,72.9979106660588L117.46984375,72.53118170206922L118.22125,72.95945841007813L118.97265625,70.66847459606066L119.72406249999999,68.8492902460287L120.47546874999999,70.78092252003222L121.22687499999999,69.56453585439786L121.97828125,69.71825469639262L122.7296875,70.64622268919972L123.48109375,68.65472706465725L124.2325,67.90119438827902L124.98390625,68.75335831819046L125.7353125,69.47251331050043L126.48671875,67.979375376976L127.238125,67.17548906937019L127.98953125,67.0235774801645L128.7409375,68.70539895432113L129.49234375,69.86168556863679L130.24375,70.955481474597L130.99515625,71.46862447354299L131.7465625,69.2594578630156L132.49796875,67.77811067982948L133.24937500000001,68.89745012125442L134.00078125000002,68.47871603937794L134.7521875,69.73400594088564L135.50359375,68.31404014580124L136.255,66.27548801741165L137.00640625,65.2161918468189L137.7578125,65.51778659161099L138.50921875,63.54343520304211L139.260625,63.500826512949544L140.01203125,62.15690340121502L140.7634375,58.626001804964446L141.51484375,57.979922131989596L142.26624999999999,56.49969089843897L143.01765625,56.663696508825225L143.7690625,54.73315550092036L144.52046875,55.07946790451322L145.271875,57.666534747138755L146.02328125,57.506813014230644L146.7746875,57.26881729869699L147.52609375,58.78168755223341L148.2775,57.69274376283197L149.02890625,55.61982003694821L149.7803125,56.439627022549416L150.53171875,54.17370319739598L151.28312499999998,54.37641294870427L152.03453125000001,55.26335742749029L152.7859375,54.364450247826355L153.53734375000002,54.03547374110187L154.28875,55.02771602337566L155.04015625000002,53.62016603676115L155.7915625,52.201736703829965L156.54296875,49.55647345881134L157.294375,49.40025189601707L158.04578125,49.426257722098754L158.7971875,51.79702714851547L159.54859375,49.0867549242535L160.3,51.12826769050751L161.05140625,53.14642386595139L161.8028125,54.360436560741505L162.55421875000002,51.33797099929349L163.305625,49.34766942680315L164.05703125,48.59447041406284L164.8084375,50.92322310934537L165.55984375,49.91115754422708L166.31125,51.126079672581L167.06265624999997,50.189955794492334L167.8140625,49.99952989730835L168.56546874999998,51.470353651720544L169.316875,50.51564233690172L170.06828124999998,51.78480607907021L170.81968750000001,52.8985396190311L171.57109375,53.778344295811706L172.32250000000002,52.525218746919364L173.07390625,53.42518135018827L173.82531250000002,53.84208291154671L174.57671875,54.93160859310298L175.328125,53.616210327136926L176.07953125,54.02279516545653L176.8309375,55.88458798573433L177.58234375,57.29827358178302L178.33375,58.11426703646465L179.08515625,57.930385621845204L179.8365625,55.8448142263818L180.58796875,55.52280924382413L181.33937500000002,53.654142437102166L182.09078125,55.970293331312064L182.8421875,55.55462136178649L183.59359375,54.3793717160912L184.345,55.52676660971697L185.09640625,54.43991351569011L185.84781249999997,53.75931727781031L186.59921875,52.42034237073902L187.35062499999998,52.71771827167201L188.10203125,54.128623943393166L188.85343749999998,52.5090333839716L189.60484375000001,52.106489202280144L190.35625,48.16313827438117L191.10765625000002,46.43123020084215L191.8590625,45.74864990807143L192.61046875000002,45.27671201070589L193.361875,42.22352187582288L194.11328125,42.376397858977015L194.8646875,41.47832381305358L195.61609375,42.62724352445608L196.3675,41.976297768107656L197.11890625,40.92604750475181L197.8703125,38.88981710059198L198.62171875,38.87514884078587L199.373125,38.25303459076815L200.12453125000002,40.879485893105965L200.8759375,41.80006828757533L201.62734375,42.584048020045515L202.37875,45.41107861043321L203.13015625,45.47871693564721L203.8815625,47.541197102843086L204.63296874999997,49.40541179054367L205.384375,50.90828568236003L206.13578124999998,52.503786046483455L206.8871875,52.62287275690157L207.63859374999998,53.08309294233361L208.39000000000001,51.95442270601524L209.14140625,49.67022698702077L209.89281250000002,51.94081910846188L210.64421875,53.13299786316857L211.39562500000002,52.60986983888195L212.14703125,54.11348373440654L212.8984375,54.84077427505966L213.64984375,56.39770108704984L214.40125,57.262316824952634L215.15265625,59.38360785755114L215.9040625,60.69522128075583L216.65546875,60.54575187538238L217.406875,58.49275277684305L218.15828125,58.89667156009166L218.90968750000002,59.88701566234607L219.66109375,60.476317217156605L220.4125,60.599341687586076L221.16390625,60.45504981124586L221.9153125,60.8398953131784L222.66671875,58.94479461059382L223.41812499999997,58.62917573843487L224.16953125,59.98152808527463L224.92093749999998,60.218162018805046L225.67234375,56.87948887472413L226.42374999999998,55.980268908603094L227.17515625000001,57.301880251072006L227.9265625,57.50943348946129L228.67796875000002,55.012159587335006L229.429375,57.25495810265821L230.18078125000002,56.3354628644997L230.9321875,53.98847475800832L231.68359375,54.20116981265788L232.435,53.35968836726303L233.18640625,54.64902925344538L233.9378125,54.304708881833434L234.68921875,53.5445271944555L235.440625,53.86808625095772L236.19203125,51.567445425590634L236.9434375,53.12734906173333L237.69484375000002,51.1273810187934L238.44625,53.406175436293935L239.19765625,53.30275087474482L239.9490625,55.89852987142818L240.70046875,56.181864001837795L241.451875,55.92855224361443L242.20328124999997,58.0349743564592L242.9546875,58.72428589056295L243.70609374999998,57.72544708860568L244.4575,56.60676392408027L245.20890624999998,55.287816746296684L245.96031250000001,56.21236562250678L246.71171875,54.65404305382921L247.46312500000002,55.61281570429347L248.21453125,53.652414271416646L248.96593750000002,53.448801987116084L249.71734375,52.126603131797836L250.46875,52.613621300830104L251.22015625,53.421903809005926L251.9715625,51.57981165540974L252.72296875,50.96677452455663L253.474375,51.2557505312256L254.22578125,50.66021270483188L254.9771875,51.487088441443575L255.72859375,48.61989431742376L256.48,49.817620149680764L257.23140625,51.298232513431515L257.98281249999997,52.43821890302502L258.73421875,50.909918672679794L259.48562499999997,50.41994660391842L260.23703125000003,52.12870581405001L260.9884375,54.09275575007871L261.73984375,55.168728700796635L262.49125,54.53567171625795L263.24265625,54.89260016245649L263.9940625,54.187563292810935L264.74546875,52.217234754140605L265.496875,49.74506733722272L266.24828125,49.75245180009267L266.9996875,49.15120129412007L267.75109375,48.49552748893424L268.5025,49.78685993248773L269.25390625,52.05115138704072L270.0053125,52.97669848088128L270.75671875,53.765374788754826L271.508125,53.12120809612337L272.25953125,55.9005719806042L273.0109375,57.05270490780984L273.76234375,59.61976795912415L274.51375,59.26770065176376L275.26515625,58.934644979347496" style="fill: none;" fill="none"></path></g></g></g></g><g opacity="0.2"><g><g><g><path stroke="rgb(204, 51, 17)" stroke-width="2px" d="M25.79828125,146.42727275125006L26.5496875,152.86363636363637L27.30109375,136.77272727272728L28.052500000000002,146.42727275125006L28.80390625,128.72727272727275L29.5553125,138.3818180859089L29.5553125,146.42727275125006L30.306718749999998,128.72727272727275L31.058125,139.9909088990905L31.80953125,146.42727275125006L32.5609375,144.8181818181818L33.312343750000004,146.42727275125006L34.06375,141.59999995204535L34.81515625,123.90000076727434L35.566562499999996,138.3818180859089L36.31796875,139.9909088990905L37.069375,143.2090908851136L37.820781249999996,133.55454564636403L38.5721875,127.11818143454465L39.32359375,115.85454622181979L40.075,112.63636363636364L40.82640625,112.63636363636364L41.5778125,69.19091216000643L42.32921875,131.94545435363597L43.080625000000005,48.27272727272728L43.83203125,41.836362101814956L44.5834375,77.236366705461L45.334843750000005,35.39999693090266L46.08625,117.46363559636202L46.837656249999995,131.94545435363597L47.5890625,120.68181818181819L48.34046875,75.62726965817538L49.091875,99.7636371309107L49.84328125,138.3818180859089L50.5946875,128.72727272727275L51.34609375,99.7636371309107L52.097500000000004,45.05454852364281L52.848906250000006,109.41818105090748L53.6003125,109.41818105090748L54.35171875,111.0272742618214L55.103125,112.63636363636364L55.854531249999994,82.0636348290877L56.605937499999996,111.0272742618214L57.35734375,86.89091062545776L58.10875,123.90000076727434L58.86015625,114.24545492909171L59.6115625,123.90000076727434L60.36296875,88.5L61.114375,102.98181971636686L61.865781250000005,90.10908937454224L62.6171875,117.46363559636202L63.36859375,107.80909167636524L64.12,93.32727195999838L64.87140624999999,112.63636363636364L65.6228125,90.10908937454224L66.37421875,70.80000153454867L67.125625,123.90000076727434L67.87703125,114.24545492909171L68.6284375,99.7636371309107L69.37984375,123.90000076727434L70.13125,107.80909167636524L70.88265625,70.80000153454867L71.6340625,96.54545454545455L72.38546875,91.71818258545615L73.136875,102.98181971636686L73.88828124999999,33.79090755636042L74.6396875,88.5L75.39109375000001,104.5909090909091L76.14250000000001,64.36363636363636L76.89390625,62.75454698909412L77.6453125,30.57272880727595L78.39671874999999,91.71818258545615L79.148125,117.46363559636202L79.89953125,96.54545454545455L80.6509375,127.11818143454465L81.40234375,65.9727257381786L82.15374999999999,104.5909090909091L82.90515624999999,54.70909244363959L83.65656249999999,99.7636371309107L84.40796875,93.32727195999838L85.159375,53.100003069097355L85.91078125,65.9727257381786L86.6621875,86.89091062545776L87.41359375,98.15454391999678L88.165,119.0727268890901L88.91640625,111.0272742618214L89.6678125,65.9727257381786L90.41921875,96.54545454545455L91.170625,57.927271192724064L91.92203125,111.0272742618214L92.6734375,67.58181511272083L93.42484375000001,86.89091062545776L94.17625000000001,85.28181741454385L94.92765625000001,59.5363605672663L95.6790625,78.84545608000323L96.43046875,99.7636371309107L97.18187499999999,88.5L97.93328125,67.58181511272083L98.6846875,88.5L99.43609375,88.5L100.1875,69.19091216000643L100.93890624999999,77.236366705461L101.69031249999999,80.45454545454547L102.44171874999999,115.85454622181979L103.193125,99.7636371309107L103.94453125,62.75454698909412L104.6959375,49.8818166472695L105.44734375,88.5L106.19875,61.14545761455189L106.95015625,56.31818181818183L107.7015625,70.80000153454867L108.45296875,88.5L109.204375,72.4090909090909L109.95578125,27.3545423854481L110.7071875,82.0636348290877L111.45859375,72.4090909090909L112.21000000000001,83.67272804000162L112.96140625000001,99.7636371309107L113.71281250000001,99.7636371309107L114.46421875,56.31818181818183L115.215625,27.3545423854481L115.96703124999999,49.8818166472695L116.7184375,38.61818335273048L117.46984375,64.36363636363636L118.22125,80.45454545454547L118.97265625,30.57272880727595L119.72406249999999,37.00909397818825L120.47546874999999,104.5909090909091L121.22687499999999,48.27272727272728L121.97828125,72.4090909090909L122.7296875,86.89091062545776L123.48109375,33.79090755636042L124.2325,54.70909244363959L124.98390625,83.67272804000162L125.7353125,82.0636348290877L126.48671875,41.836362101814956L127.238125,53.100003069097355L127.98953125,64.36363636363636L128.7409375,98.15454391999678L129.49234375,90.10908937454224L130.24375,90.10908937454224L130.99515625,80.45454545454547L131.7465625,30.57272880727595L132.49796875,41.836362101814956L133.24937500000001,88.5L134.00078125000002,61.14545761455189L134.7521875,91.71818258545615L135.50359375,43.44545147635719L136.255,30.57272880727595L137.00640625,46.663637898185044L137.7578125,70.80000153454867L138.50921875,28.963639432733714L139.260625,62.75454698909412L140.01203125,38.61818335273048L140.7634375,-3.2181787490844727L141.51484375,46.663637898185044L142.26624999999999,30.57272880727595L143.01765625,59.5363605672663L143.7690625,20.918184887279153L144.52046875,61.14545761455189L145.271875,102.98181971636686L146.02328125,54.70909244363959L146.7746875,53.100003069097355L147.52609375,85.28181741454385L148.2775,38.61818335273048L149.02890625,19.309087839993566L149.7803125,70.80000153454867L150.53171875,14.481812043623478L151.28312499999998,57.927271192724064L152.03453125000001,70.80000153454867L152.7859375,38.61818335273048L153.53734375000002,48.27272727272728L154.28875,72.4090909090909L155.04015625000002,28.963639432733714L155.7915625,27.3545423854481L156.54296875,3.2181787490844727L157.294375,46.663637898185044L158.04578125,49.8818166472695L158.7971875,93.32727195999838L159.54859375,1.6090970472855872L160.3,86.89091062545776L161.05140625,88.5L161.8028125,75.62726965817538L162.55421875000002,-1.6090970472855872L163.305625,14.481812043623478L164.05703125,35.39999693090266L164.8084375,91.71818258545615L165.55984375,32.18181818181819L166.31125,72.4090909090909L167.06265624999997,33.79090755636042L167.8140625,46.663637898185044L168.56546874999998,77.236366705461L169.316875,33.79090755636042L170.06828124999998,74.01818028363314L170.81968750000001,72.4090909090909L171.57109375,69.19091216000643L172.32250000000002,30.57272880727595L173.07390625,69.19091216000643L173.82531250000002,61.14545761455189L174.57671875,74.01818028363314L175.328125,30.57272880727595L176.07953125,61.14545761455189L176.8309375,88.5L177.58234375,82.0636348290877L178.33375,72.4090909090909L179.08515625,54.70909244363959L179.8365625,19.309087839993566L180.58796875,49.8818166472695L181.33937500000002,20.918184887279153L182.09078125,96.54545454545455L182.8421875,48.27272727272728L183.59359375,33.79090755636042L184.345,75.62726965817538L185.09640625,35.39999693090266L185.84781249999997,41.836362101814956L186.59921875,28.963639432733714L187.35062499999998,57.927271192724064L188.10203125,78.84545608000323L188.85343749999998,24.136363636363626L189.60484375000001,45.05454852364281L190.35625,-20.918184887279182L191.10765625000002,16.090909090909093L191.8590625,33.79090755636042L192.61046875000002,37.00909397818825L193.361875,-11.263633294539005L194.11328125,45.05454852364281L194.8646875,25.745453010905862L195.61609375,62.75454698909412L196.3675,30.57272880727595L197.11890625,22.52727426182139L197.8703125,3.2181787490844727L198.62171875,38.61818335273048L199.373125,27.3545423854481L200.12453125000002,86.89091062545776L200.8759375,57.927271192724064L201.62734375,56.31818181818183L202.37875,94.93636517091231L203.13015625,46.663637898185044L203.8815625,83.67272804000162L204.63296874999997,82.0636348290877L205.384375,77.236366705461L206.13578124999998,80.45454545454547L206.8871875,54.70909244363959L207.63859374999998,61.14545761455189L208.39000000000001,32.18181818181819L209.14140625,9.654551592740148L209.89281250000002,91.71818258545615L210.64421875,74.01818028363314L211.39562500000002,43.44545147635719L212.14703125,80.45454545454547L212.8984375,67.58181511272083L213.64984375,83.67272804000162L214.40125,72.4090909090909L215.15265625,96.54545454545455L215.9040625,83.67272804000162L216.65546875,57.927271192724064L217.406875,22.52727426182139L218.15828125,65.9727257381786L218.90968750000002,77.236366705461L219.66109375,70.80000153454867L220.4125,62.75454698909412L221.16390625,57.927271192724064L221.9153125,67.58181511272083L222.66671875,25.745453010905862L223.41812499999997,53.100003069097355L224.16953125,83.67272804000162L224.92093749999998,64.36363636363636L225.67234375,-1.6090970472855872L226.42374999999998,40.22727272727272L227.17515625000001,80.45454545454547L227.9265625,61.14545761455189L228.67796875000002,11.263633294539005L229.429375,96.54545454545455L230.18078125000002,40.22727272727272L230.9321875,12.87273034182462L231.68359375,57.927271192724064L232.435,38.61818335273048L233.18640625,77.236366705461L233.9378125,48.27272727272728L234.68921875,40.22727272727272L235.440625,59.5363605672663L236.19203125,11.263633294539005L236.9434375,80.45454545454547L237.69484375000002,16.090909090909093L238.44625,93.32727195999838L239.19765625,51.49090602181174L239.9490625,101.37272650545293L240.70046875,61.14545761455189L241.451875,51.49090602181174L242.20328124999997,94.93636517091231L242.9546875,70.80000153454867L243.70609374999998,40.22727272727272L244.4575,37.00909397818825L245.20890624999998,32.18181818181819L245.96031250000001,72.4090909090909L246.71171875,27.3545423854481L247.46312500000002,72.4090909090909L248.21453125,19.309087839993566L248.96593750000002,49.8818166472695L249.71734375,28.963639432733714L250.46875,61.14545761455189L251.22015625,67.58181511272083L251.9715625,19.309087839993566L252.72296875,40.22727272727272L253.474375,56.31818181818183L254.22578125,40.22727272727272L254.9771875,65.9727257381786L255.72859375,-1.6090970472855872L256.48,70.80000153454867L257.23140625,77.236366705461L257.98281249999997,72.4090909090909L258.73421875,24.136363636363626L259.48562499999997,41.836362101814956L260.23703125000003,82.0636348290877L260.9884375,88.5L261.73984375,74.01818028363314L262.49125,43.44545147635719L263.24265625,61.14545761455189L263.9940625,41.836362101814956L264.74546875,17.69999846545133L265.496875,6.436357498168945L266.24828125,49.8818166472695L266.9996875,38.61818335273048L267.75109375,37.00909397818825L268.5025,72.4090909090909L269.25390625,91.71818258545615L270.0053125,69.19091216000643L270.75671875,67.58181511272083L271.508125,41.836362101814956L272.25953125,104.5909090909091L273.0109375,77.236366705461L273.76234375,104.5909090909091L274.51375,53.100003069097355L275.26515625,53.100003069097355" style="fill: none;" fill="none"></path></g></g></g></g></g></g><g transform="translate(29, 177)" clip-path="url(#clip_1)"><clipPath id="clip_1"><rect width="300" height="23"></rect></clipPath><g><g><line x1="0" y1="0" x2="0" y2="5" style="visibility: inherit;" fill="rgb(0, 0, 0)" stroke="rgb(204, 204, 204)" stroke-width="1px"></line><line x1="25.046875" y1="0" x2="25.046875" y2="5" style="visibility: inherit;" fill="rgb(0, 0, 0)" stroke="rgb(204, 204, 204)" stroke-width="1px"></line><line x1="50.09375" y1="0" x2="50.09375" y2="5" style="visibility: inherit;" fill="rgb(0, 0, 0)" stroke="rgb(204, 204, 204)" stroke-width="1px"></line><line x1="75.140625" y1="0" x2="75.140625" y2="5" style="visibility: inherit;" fill="rgb(0, 0, 0)" stroke="rgb(204, 204, 204)" stroke-width="1px"></line><line x1="100.1875" y1="0" x2="100.1875" y2="5" style="visibility: inherit;" fill="rgb(0, 0, 0)" stroke="rgb(204, 204, 204)" stroke-width="1px"></line><line x1="125.234375" y1="0" x2="125.234375" y2="5" style="visibility: inherit;" fill="rgb(0, 0, 0)" stroke="rgb(204, 204, 204)" stroke-width="1px"></line><line x1="150.28125" y1="0" x2="150.28125" y2="5" style="visibility: inherit;" fill="rgb(0, 0, 0)" stroke="rgb(204, 204, 204)" stroke-width="1px"></line><line x1="175.328125" y1="0" x2="175.328125" y2="5" style="visibility: inherit;" fill="rgb(0, 0, 0)" stroke="rgb(204, 204, 204)" stroke-width="1px"></line><line x1="200.375" y1="0" x2="200.375" y2="5" style="visibility: inherit;" fill="rgb(0, 0, 0)" stroke="rgb(204, 204, 204)" stroke-width="1px"></line><line x1="225.421875" y1="0" x2="225.421875" y2="5" style="visibility: inherit;" fill="rgb(0, 0, 0)" stroke="rgb(204, 204, 204)" stroke-width="1px"></line><line x1="250.46875" y1="0" x2="250.46875" y2="5" style="visibility: inherit;" fill="rgb(0, 0, 0)" stroke="rgb(204, 204, 204)" stroke-width="1px"></line><line x1="275.515625" y1="0" x2="275.515625" y2="5" style="visibility: inherit;" fill="rgb(0, 0, 0)" stroke="rgb(204, 204, 204)" stroke-width="1px"></line><line x1="300.5625" y1="0" x2="300.5625" y2="5" style="visibility: inherit;" fill="rgb(0, 0, 0)" stroke="rgb(204, 204, 204)" stroke-width="1px"></line></g><g transform="translate(0, 8)"><text x="0" y="0" dx="0em" dy="0.95em" style="text-anchor: middle; visibility: hidden; font-family: &quot;Helvetica Neue&quot;, sans-serif; font-size: 12px; font-weight: 200;" fill="rgb(50, 49, 63)" stroke="none" stroke-width="1px">-50k</text><text x="25.046875" y="0" dx="0em" dy="0.95em" style="text-anchor: middle; visibility: inherit; font-family: &quot;Helvetica Neue&quot;, sans-serif; font-size: 12px; font-weight: 200;" fill="rgb(50, 49, 63)" stroke="none" stroke-width="1px">0</text><text x="50.09375" y="0" dx="0em" dy="0.95em" style="text-anchor: middle; visibility: hidden; font-family: &quot;Helvetica Neue&quot;, sans-serif; font-size: 12px; font-weight: 200;" fill="rgb(50, 49, 63)" stroke="none" stroke-width="1px">50k</text><text x="75.140625" y="0" dx="0em" dy="0.95em" style="text-anchor: middle; visibility: inherit; font-family: &quot;Helvetica Neue&quot;, sans-serif; font-size: 12px; font-weight: 200;" fill="rgb(50, 49, 63)" stroke="none" stroke-width="1px">100k</text><text x="100.1875" y="0" dx="0em" dy="0.95em" style="text-anchor: middle; visibility: hidden; font-family: &quot;Helvetica Neue&quot;, sans-serif; font-size: 12px; font-weight: 200;" fill="rgb(50, 49, 63)" stroke="none" stroke-width="1px">150k</text><text x="125.234375" y="0" dx="0em" dy="0.95em" style="text-anchor: middle; visibility: inherit; font-family: &quot;Helvetica Neue&quot;, sans-serif; font-size: 12px; font-weight: 200;" fill="rgb(50, 49, 63)" stroke="none" stroke-width="1px">200k</text><text x="150.28125" y="0" dx="0em" dy="0.95em" style="text-anchor: middle; visibility: hidden; font-family: &quot;Helvetica Neue&quot;, sans-serif; font-size: 12px; font-weight: 200;" fill="rgb(50, 49, 63)" stroke="none" stroke-width="1px">250k</text><text x="175.328125" y="0" dx="0em" dy="0.95em" style="text-anchor: middle; visibility: inherit; font-family: &quot;Helvetica Neue&quot;, sans-serif; font-size: 12px; font-weight: 200;" fill="rgb(50, 49, 63)" stroke="none" stroke-width="1px">300k</text><text x="200.375" y="0" dx="0em" dy="0.95em" style="text-anchor: middle; visibility: hidden; font-family: &quot;Helvetica Neue&quot;, sans-serif; font-size: 12px; font-weight: 200;" fill="rgb(50, 49, 63)" stroke="none" stroke-width="1px">350k</text><text x="225.421875" y="0" dx="0em" dy="0.95em" style="text-anchor: middle; visibility: inherit; font-family: &quot;Helvetica Neue&quot;, sans-serif; font-size: 12px; font-weight: 200;" fill="rgb(50, 49, 63)" stroke="none" stroke-width="1px">400k</text><text x="250.46875" y="0" dx="0em" dy="0.95em" style="text-anchor: middle; visibility: hidden; font-family: &quot;Helvetica Neue&quot;, sans-serif; font-size: 12px; font-weight: 200;" fill="rgb(50, 49, 63)" stroke="none" stroke-width="1px">450k</text><text x="275.515625" y="0" dx="0em" dy="0.95em" style="text-anchor: middle; visibility: inherit; font-family: &quot;Helvetica Neue&quot;, sans-serif; font-size: 12px; font-weight: 200;" fill="rgb(50, 49, 63)" stroke="none" stroke-width="1px">500k</text><text x="300.5625" y="0" dx="0em" dy="0.95em" style="text-anchor: middle; visibility: hidden; font-family: &quot;Helvetica Neue&quot;, sans-serif; font-size: 12px; font-weight: 200;" fill="rgb(50, 49, 63)" stroke="none" stroke-width="1px">550k</text></g><line x1="0" y1="0" x2="300.5625" y2="0" fill="rgb(0, 0, 0)" stroke="rgb(204, 204, 204)" stroke-width="1px"></line></g></g></g></g></svg>