<svg viewBox="0 0 330 200" xmlns="http://www.w3.org/2000/svg"><g><g><g><g><g><line x1="29.4375" y1="177" x2="24.4375" y2="177" style="visibility: inherit;" fill="rgb(0, 0, 0)" stroke="rgb(204, 204, 204)" stroke-width="1px"></line><line x1="29.4375" y1="162.25" x2="24.4375" y2="162.25" style="visibility: inherit;" fill="rgb(0, 0, 0)" stroke="rgb(204, 204, 204)" stroke-width="1px"></line><line x1="29.4375" y1="147.5" x2="24.4375" y2="147.5" style="visibility: inherit;" fill="rgb(0, 0, 0)" stroke="rgb(204, 204, 204)" stroke-width="1px"></line><line x1="29.4375" y1="132.75" x2="24.4375" y2="132.75" style="visibility: inherit;" fill="rgb(0, 0, 0)" stroke="rgb(204, 204, 204)" stroke-width="1px"></line><line x1="29.4375" y1="118" x2="24.4375" y2="118" style="visibility: inherit;" fill="rgb(0, 0, 0)" stroke="rgb(204, 204, 204)" stroke-width="1px"></line><line x1="29.4375" y1="103.25" x2="24.4375" y2="103.25" style="visibility: inherit;" fill="rgb(0, 0, 0)" stroke="rgb(204, 204, 204)" stroke-width="1px"></line><line x1="29.4375" y1="88.5" x2="24.4375" y2="88.5" style="visibility: inherit;" fill="rgb(0, 0, 0)" stroke="rgb(204, 204, 204)" stroke-width="1px"></line><line x1="29.4375" y1="73.75" x2="24.4375" y2="73.75" style="visibility: inherit;" fill="rgb(0, 0, 0)" stroke="rgb(204, 204, 204)" stroke-width="1px"></line><line x1="29.4375" y1="59" x2="24.4375" y2="59" style="visibility: inherit;" fill="rgb(0, 0, 0)" stroke="rgb(204, 204, 204)" stroke-width="1px"></line><line x1="29.4375" y1="44.25" x2="24.4375" y2="44.25" style="visibility: inherit;" fill="rgb(0, 0, 0)" stroke="rgb(204, 204, 204)" stroke-width="1px"></line><line x1="29.4375" y1="29.5" x2="24.4375" y2="29.5" style="visibility: inherit;" fill="rgb(0, 0, 0)" stroke="rgb(204, 204, 204)" stroke-width="1px"></line><line x1="29.4375" y1="14.75" x2="24.4375" y2="14.75" style="visibility: inherit;" fill="rgb(0, 0, 0)" stroke="rgb(204, 204, 204)" stroke-width="1px"></line><line x1="29.4375" y1="0" x2="24.4375" y2="0" style="visibility: inherit;" fill="rgb(0, 0, 0)" stroke="rgb(204, 204, 204)" stroke-width="1px"></line></g><g transform="translate(19.4375, 0)"><text x="0" y="177" dx="0em" dy="0.3em" style="text-anchor: end; visibility: hidden; font-family: &quot;Helvetica Neue&quot;, sans-serif; font-size: 12px; font-weight: 200;" fill="rgb(50, 49, 63)" stroke="none" stroke-width="1px">-5</text><text x="0" y="162.25" dx="0em" dy="0.3em" style="text-anchor: end; visibility: inherit; font-family: &quot;Helvetica Neue&quot;, sans-serif; font-size: 12px; font-weight: 200;" fill="rgb(50, 49, 63)" stroke="none" stroke-width="1px">0</text><text x="0" y="147.5" dx="0em" dy="0.3em" style="text-anchor: end; visibility: hidden; font-family: &quot;Helvetica Neue&quot;, sans-serif; font-size: 12px; font-weight: 200;" fill="rgb(50, 49, 63)" stroke="none" stroke-width="1px">5</text><text x="0" y="132.75" dx="0em" dy="0.3em" style="text-anchor: end; visibility: inherit; font-family: &quot;Helvetica Neue&quot;, sans-serif; font-size: 12px; font-weight: 200;" fill="rgb(50, 49, 63)" stroke="none" stroke-width="1px">10</text><text x="0" y="118" dx="0em" dy="0.3em" style="text-anchor: end; visibility: hidden; font-family: &quot;Helvetica Neue&quot;, sans-serif; font-size: 12px; font-weight: 200;" fill="rgb(50, 49, 63)" stroke="none" stroke-width="1px">15</text><text x="0" y="103.25" dx="0em" dy="0.3em" style="text-anchor: end; visibility: inherit; font-family: &quot;Helvetica Neue&quot;, sans-serif; font-size: 12px; font-weight: 200;" fill="rgb(50, 49, 63)" stroke="none" stroke-width="1px">20</text><text x="0" y="88.5" dx="0em" dy="0.3em" style="text-anchor: end; visibility: hidden; font-family: &quot;Helvetica Neue&quot;, sans-serif; font-size: 12px; font-weight: 200;" fill="rgb(50, 49, 63)" stroke="none" stroke-width="1px">25</text><text x="0" y="73.75" dx="0em" dy="0.3em" style="text-anchor: end; visibility: inherit; font-family: &quot;Helvetica Neue&quot;, sans-serif; font-size: 12px; font-weight: 200;" fill="rgb(50, 49, 63)" stroke="none" stroke-width="1px">30</text><text x="0" y="59" dx="0em" dy="0.3em" style="text-anchor: end; visibility: hidden; font-family: &quot;Helvetica Neue&quot;, sans-serif; font-size: 12px; font-weight: 200;" fill="rgb(50, 49, 63)" stroke="none" stroke-width="1px">35</text><text x="0" y="44.25" dx="0em" dy="0.3em" style="text-anchor: end; visibility: inherit; font-family: &quot;Helvetica Neue&quot;, sans-serif; font-size: 12px; font-weight: 200;" fill="rgb(50, 49, 63)" stroke="none" stroke-width="1px">40</text><text x="0" y="29.5" dx="0em" dy="0.3em" style="text-anchor: end; visibility: hidden; font-family: &quot;Helvetica Neue&quot;, sans-serif; font-size: 12px; font-weight: 200;" fill="rgb(50, 49, 63)" stroke="none" stroke-width="1px">45</text><text x="0" y="14.75" dx="0em" dy="0.3em" style="text-anchor: end; visibility: inherit; font-family: &quot;Helvetica Neue&quot;, sans-serif; font-size: 12px; font-weight: 200;" fill="rgb(50, 49, 63)" stroke="none" stroke-width="1px">50</text><text x="0" y="0" dx="0em" dy="0.3em" style="text-anchor: end; visibility: hidden; font-family: &quot;Helvetica Neue&quot;, sans-serif; font-size: 12px; font-weight: 200;" fill="rgb(50, 49, 63)" stroke="none" stroke-width="1px">55</text></g><line x1="29.4375" y1="0" x2="29.4375" y2="177" fill="rgb(0, 0, 0)" stroke="rgb(204, 204, 204)" stroke-width="1px"></line></g></g><g transform="translate(29, 0)" clip-path="url(#clip_0)"><clipPath id="clip_0"><rect width="300" height="177"></rect></clipPath><g><g><g><line x1="0" y1="0" x2="0" y2="177" fill="rgb(0, 0, 0)" stroke="rgb(60, 60, 60)" stroke-width="1px" opacity="0.25"></line><line x1="25.046875" y1="0" x2="25.046875" y2="177" fill="rgb(0, 0, 0)" stroke="rgb(60, 60, 60)" stroke-width="1px" opacity="0.25"></line><line x1="50.09375" y1="0" x2="50.09375" y2="177" fill="rgb(0, 0, 0)" stroke="rgb(60, 60, 60)" stroke-width="1px" opacity="0.25"></line><line x1="75.140625" y1="0" x2="75.140625" y2="177" fill="rgb(0, 0, 0)" stroke="rgb(60, 60, 60)" stroke-width="1px" opacity="0.25"></line><line x1="100.1875" y1="0" x2="100.1875" y2="177" fill="rgb(0, 0, 0)" stroke="rgb(60, 60, 60)" stroke-width="1px" opacity="0.25"></line><line x1="125.234375" y1="0" x2="125.234375" y2="177" fill="rgb(0, 0, 0)" stroke="rgb(60, 60, 60)" stroke-width="1px" opacity="0.25"></line><line x1="150.28125" y1="0" x2="150.28125" y2="177" fill="rgb(0, 0, 0)" stroke="rgb(60, 60, 60)" stroke-width="1px" opacity="0.25"></line><line x1="175.328125" y1="0" x2="175.328125" y2="177" fill="rgb(0, 0, 0)" stroke="rgb(60, 60, 60)" stroke-width="1px" opacity="0.25"></line><line x1="200.375" y1="0" x2="200.375" y2="177" fill="rgb(0, 0, 0)" stroke="rgb(60, 60, 60)" stroke-width="1px" opacity="0.25"></line><line x1="225.421875" y1="0" x2="225.421875" y2="177" fill="rgb(0, 0, 0)" stroke="rgb(60, 60, 60)" stroke-width="1px" opacity="0.25"></line><line x1="250.46875" y1="0" x2="250.46875" y2="177" fill="rgb(0, 0, 0)" stroke="rgb(60, 60, 60)" stroke-width="1px" opacity="0.25"></line><line x1="275.515625" y1="0" x2="275.515625" y2="177" fill="rgb(0, 0, 0)" stroke="rgb(60, 60, 60)" stroke-width="1px" opacity="0.25"></line><line x1="300.5625" y1="0" x2="300.5625" y2="177" fill="rgb(0, 0, 0)" stroke="rgb(60, 60, 60)" stroke-width="1px" opacity="0.25"></line></g><g><line x1="0" y1="177" x2="300.5625" y2="177" fill="rgb(0, 0, 0)" stroke="rgb(60, 60, 60)" stroke-width="1px" opacity="0.25"></line><line x1="0" y1="162.25" x2="300.5625" y2="162.25" fill="rgb(0, 0, 0)" stroke="rgb(60, 60, 60)" stroke-width="1px" opacity="0.25"></line><line x1="0" y1="147.5" x2="300.5625" y2="147.5" fill="rgb(0, 0, 0)" stroke="rgb(60, 60, 60)" stroke-width="1px" opacity="0.25"></line><line x1="0" y1="132.75" x2="300.5625" y2="132.75" fill="rgb(0, 0, 0)" stroke="rgb(60, 60, 60)" stroke-width="1px" opacity="0.25"></line><line x1="0" y1="118" x2="300.5625" y2="118" fill="rgb(0, 0, 0)" stroke="rgb(60, 60, 60)" stroke-width="1px" opacity="0.25"></line><line x1="0" y1="103.25" x2="300.5625" y2="103.25" fill="rgb(0, 0, 0)" stroke="rgb(60, 60, 60)" stroke-width="1px" opacity="0.25"></line><line x1="0" y1="88.5" x2="300.5625" y2="88.5" fill="rgb(0, 0, 0)" stroke="rgb(60, 60, 60)" stroke-width="1px" opacity="0.25"></line><line x1="0" y1="73.75" x2="300.5625" y2="73.75" fill="rgb(0, 0, 0)" stroke="rgb(60, 60, 60)" stroke-width="1px" opacity="0.25"></line><line x1="0" y1="59" x2="300.5625" y2="59" fill="rgb(0, 0, 0)" stroke="rgb(60, 60, 60)" stroke-width="1px" opacity="0.25"></line><line x1="0" y1="44.25" x2="300.5625" y2="44.25" fill="rgb(0, 0, 0)" stroke="rgb(60, 60, 60)" stroke-width="1px" opacity="0.25"></line><line x1="0" y1="29.5" x2="300.5625" y2="29.5" fill="rgb(0, 0, 0)" stroke="rgb(60, 60, 60)" stroke-width="1px" opacity="0.25"></line><line x1="0" y1="14.75" x2="300.5625" y2="14.75" fill="rgb(0, 0, 0)" stroke="rgb(60, 60, 60)" stroke-width="1px" opacity="0.25"></line><line x1="0" y1="0" x2="300.5625" y2="0" fill="rgb(0, 0, 0)" stroke="rgb(60, 60, 60)" stroke-width="1px" opacity="0.25"></line></g></g></g><g><g><line x1="0" y1="162.25" x2="300.5625" y2="162.25" fill="rgb(0, 0, 0)" stroke="rgb(153, 153, 153)" stroke-width="1.5px"></line></g></g><g><g><line x1="25.046875" y1="0" x2="25.046875" y2="177" fill="rgb(0, 0, 0)" stroke="rgb(153, 153, 153)" stroke-width="1.5px"></line></g></g><g><g><g><g><g><path stroke="rgb(204, 51, 17)" stroke-width="2px" d="M25.79828125,153.4L26.5496875,155.52230212213078L27.30109375,156.5405293483269L28.052500000000002,156.88885975510266L28.80390625,156.5059020769702L29.5553125,154.6204872034221L29.5553125,153.22842423067945L30.306718749999998,154.4092533637258L31.058125,153.41994859604037L31.80953125,152.33298502726998L32.5609375,150.22815316841707L33.312343750000004,148.61497225702755L34.06375,146.7934673148245L34.81515625,144.8297062625541L35.566562499999996,143.19622983254544L36.31796875,142.26493359664948L37.069375,139.7285829559345L37.820781249999996,138.6027010575126L38.5721875,135.42901660004L39.32359375,132.12478849279648L40.075,129.7437782045017L40.82640625,126.99197876844555L41.5778125,125.3686167076533L42.32921875,122.68570639367576L43.080625000000005,120.65016838388911L43.83203125,117.68915595865695L44.5834375,117.64923323088333L45.334843750000005,114.80507052870819L46.08625,112.35271732926716L46.837656249999995,112.04120850055669L47.5890625,109.75576317852081L48.34046875,107.77967916933783L49.091875,105.66764758772969L49.84328125,107.95433716827463L50.5946875,105.57526626280392L51.34609375,105.78014146780374L52.097500000000004,106.75634764471378L52.848906250000006,105.03615440934242L53.6003125,103.07372226091107L54.35171875,102.3696067720234L55.103125,101.19762491131058L55.854531249999994,99.83827717892865L56.605937499999996,98.42727829047972L57.35734375,97.17718465457094L58.10875,97.16999534944732L58.86015625,96.05772873165125L59.6115625,95.84072994186403L60.36296875,94.30172500179464L61.114375,95.51818615330511L61.865781250000005,94.72328397396551L62.6171875,94.99250609479225L63.36859375,96.08896154153021L64.12,94.8995658750481L64.87140624999999,96.41370863327444L65.6228125,97.95478911444481L66.37421875,98.55424097105956L67.125625,100.31593819266573L67.87703125,100.18229659021095L68.6284375,99.57633251416755L69.37984375,99.08819167974495L70.13125,98.57884588634849L70.88265625,97.06210127178305L71.6340625,97.48881837213216L72.38546875,98.33388843636023L73.136875,97.91905759935734L73.88828124999999,98.19815273011424L74.6396875,98.28182129773562L75.39109375000001,99.35529867694086L76.14250000000001,98.54442556135831L76.89390625,98.15329688310247L77.6453125,98.33649670702346L78.39671874999999,97.81161265627972L79.148125,97.31610362345599L79.89953125,96.73489801657446L80.6509375,97.33499732072445L81.40234375,98.07954265561403L82.15374999999999,99.10581237259419L82.90515624999999,99.97828695405182L83.65656249999999,99.54421248483743L84.40796875,98.7795138396193L85.159375,99.78079192676218L85.91078125,98.90754009736658L86.6621875,98.48468438621663L87.41359375,97.4900850522516L88.165,95.00713280598706L88.91640625,93.30323672736513L89.6678125,92.27097463164911L90.41921875,92.40286894966951L91.170625,91.09955534627136L91.92203125,90.39687645200823L92.6734375,88.83482019903904L93.42484375000001,87.90308984272309L94.17625000000001,87.56700860371436L94.92765625000001,85.95192080454882L95.6790625,85.2575988537992L96.43046875,83.25650777112715L97.18187499999999,82.83681165849029L97.93328125,80.6960464165633L98.6846875,79.98350578436322L99.43609375,78.6860591100579L100.1875,76.67575811408979L100.93890624999999,75.30231535260303L101.69031249999999,73.79576820430592L102.44171874999999,71.73190909115668L103.193125,71.18615089383398L103.94453125,69.31220442900674L104.6959375,68.56221098687234L105.44734375,67.2460740853026L106.19875,66.32070612569429L106.95015625,65.58922809276805L107.7015625,65.16880318405322L108.45296875,64.69136537801883L109.204375,64.44729140100954L109.95578125,63.61002306578351L110.7071875,63.775541041146255L111.45859375,63.42151660386304L112.21000000000001,62.352779729898955L112.96140625000001,61.1983497240997L113.71281250000001,61.127332687274034L114.46421875,60.533797475559155L115.215625,59.27062358009981L115.96703124999999,57.932287940404734L116.7184375,56.969381365581384L117.46984375,55.915064773507424L118.22125,55.14103087589977L118.97265625,55.28582771789668L119.72406249999999,54.003791219670006L120.47546874999999,53.76362932539287L121.22687499999999,52.69151119638558L121.97828125,51.31071585552053L122.7296875,50.48282226055241L123.48109375,49.412766970591306L124.2325,49.30914289687935L124.98390625,48.286637777512595L125.7353125,47.988843676822256L126.48671875,49.603815941438384L127.238125,48.19891046906474L127.98953125,47.459631260106875L128.7409375,46.91968073442095L129.49234375,46.28141921444143L130.24375,45.11987970987147L130.99515625,44.435448055938735L131.7465625,44.39355879302917L132.49796875,43.73245371269354L133.24937500000001,43.123006608641305L134.00078125000002,42.307467902951316L134.7521875,42.23711477535775L135.50359375,42.09089129251814L136.255,41.37894097511838L137.00640625,41.66148639410679L137.7578125,41.19581967991306L138.50921875,40.64377590114174L139.260625,39.91442274770375L140.01203125,39.798061253099974L140.7634375,39.28966264222461L141.51484375,38.920256809265254L142.26624999999999,38.3796141414482L143.01765625,37.884108334699704L143.7690625,37.55875860563884L144.52046875,36.932338533772906L145.271875,36.48314336687392L146.02328125,36.12193849528833L146.7746875,36.991066111699666L147.52609375,37.19191075619463L148.2775,36.79243530536385L149.02890625,36.557920458974564L149.7803125,35.985578746749155L150.53171875,35.63532629891438L151.28312499999998,35.28805966246594L152.03453125000001,35.85169936638388L152.7859375,35.58833774253927L153.53734375000002,35.24361315812678L154.28875,34.67854016027874L155.04015625000002,34.159915885329184L155.7915625,34.115367615815245L156.54296875,34.23253433638649L157.294375,34.8212991786952L158.04578125,34.454280259680445L158.7971875,34.56907492054677L159.54859375,34.39091648076362L160.3,33.95155821807987L161.05140625,35.2086457871614L161.8028125,35.10746487410677L162.55421875000002,35.37815144609982L163.305625,35.889109100630776L164.05703125,36.2290982361597L164.8084375,35.419661944188306L165.55984375,34.845103581877765L166.31125,35.0503034418017L167.06265624999997,34.798370318321446L167.8140625,34.050269492861844L168.56546874999998,33.868270906054306L169.316875,33.42528454994624L170.06828124999998,34.153204736935095L170.81968750000001,33.885996607768874L171.57109375,33.74472988897327L172.32250000000002,34.00934894356746L173.07390625,34.02072404914449L173.82531250000002,33.09160026698231L174.57671875,32.84986033012402L175.328125,32.541523596963L176.07953125,33.97030059682237L176.8309375,34.190877422550955L177.58234375,34.03314789449456L178.33375,33.74056468829818L179.08515625,34.33994079216956L179.8365625,34.26974339348757L180.58796875,33.90066356027705L181.33937500000002,33.74267628301615L182.09078125,33.465779489436386L182.8421875,33.936621129407854L183.59359375,33.52181061952837L184.345,34.27636813019137L185.09640625,34.19367343505394L185.84781249999997,33.51010046698079L186.59921875,33.24576352405711L187.35062499999998,33.21872189204669L188.10203125,32.69930802729678L188.85343749999998,32.54247432737415L189.60484375000001,32.3144593381881L190.35625,32.6722403364262L191.10765625000002,33.10628116585906L191.8590625,33.548743843275815L192.61046875000002,33.537201508292526L193.361875,33.956394204163274L194.11328125,33.50865744492697L194.8646875,33.14881848812553L195.61609375,33.39782296143693L196.3675,32.741298664624L197.11890625,32.295457144208825L197.8703125,32.70205355494025L198.62171875,33.21413384785387L199.373125,33.427750892547124L200.12453125000002,33.45460240565441L200.8759375,33.798604618731076L201.62734375,34.18775100749107L202.37875,34.81076365727981L203.13015625,34.93816240966041L203.8815625,34.74008105383638L204.63296874999997,35.87488877692954L205.384375,35.9607550374304L206.13578124999998,36.55174537391852L206.8871875,35.852350154849546L207.63859374999998,35.52525257475355L208.39000000000001,35.422909051910636L209.14140625,35.517251830679044L209.89281250000002,34.74627949799756L210.64421875,34.79751021580225L211.39562500000002,34.38400437512706L212.14703125,34.08840773969294L212.8984375,33.34680330587949L213.64984375,33.74441614004138L214.40125,33.658587843303934L215.15265625,33.24286366551053L215.9040625,33.5982992805032L216.65546875,33.95047111335836L217.406875,33.726075287263L218.15828125,32.87659646691898L218.90968750000002,33.4589004680285L219.66109375,33.02209936418879L220.4125,32.44958546345694L221.16390625,32.75227823754548L221.9153125,32.114684678632244L222.66671875,31.95756188121652L223.41812499999997,31.777063587440438L224.16953125,31.63817234312296L224.92093749999998,31.33155080297604L225.67234375,31.328226815393407L226.42374999999998,31.516242507330816L227.17515625000001,32.395025805420914L227.9265625,32.1271842119811L228.67796875000002,32.00124598658405L229.429375,31.420138672602036L230.18078125000002,31.077501099362223L230.9321875,30.673715945326535L231.68359375,30.626265030681964L232.435,31.17078671173988L233.18640625,30.761964148159223L233.9378125,30.677888311444207L234.68921875,30.64614245852343L235.440625,30.4408804881987L236.19203125,30.151122895774762L236.9434375,29.638062182248575L237.69484375000002,29.455377041490863L238.44625,29.123256879626837L239.19765625,29.111740885124618L239.9490625,28.654806822296592L240.70046875,29.194277072283228L241.451875,29.05148609498991L242.20328124999997,28.725245691060763L242.9546875,28.703362178560212L243.70609374999998,28.650800859194504L244.4575,28.346197464968895L245.20890624999998,28.5040825716805L245.96031250000001,28.94018238956994L246.71171875,28.667742277551753L247.46312500000002,29.748134269251636L248.21453125,30.84983509076008L248.96593750000002,31.73274405048079L249.71734375,31.038696074208275L250.46875,30.812236230590628L251.22015625,31.107765368080806L251.9715625,31.11652579556599L252.72296875,30.66284350287711L253.474375,30.440749943874096L254.22578125,30.437739325242376L254.9771875,31.04023118251405L255.72859375,30.702178929041025L256.48,30.764701147556792L257.23140625,30.887567411252434L257.98281249999997,30.748918523566175L258.73421875,30.617756676277935L259.48562499999997,30.5892579364847L260.23703125000003,30.243698120153823L260.9884375,30.123888418616218L261.73984375,30.185778202428537L262.49125,30.13281642136363L263.24265625,30.289804459528852L263.9940625,30.693194905400418L264.74546875,30.72434213803689L265.496875,30.291837776229727L266.24828125,30.217218413489405L266.9996875,30.51301838091723L267.75109375,29.9485552580945L268.5025,29.58980351198892L269.25390625,29.234493995894894L270.0053125,29.105461075357084L270.75671875,28.37805604675512L271.508125,29.251070787372072L272.25953125,29.073352841350726L273.0109375,29.11232154525328L273.76234375,28.671285934368626L274.51375,28.397436491346696L275.26515625,28.31360467699838" style="fill: none;" fill="none"></path></g></g></g></g><g opacity="0.2"><g><g><g><path stroke="rgb(204, 51, 17)" stroke-width="2px" d="M25.79828125,153.4L26.5496875,157.52999992966653L27.30109375,158.41500014066696L28.052500000000002,157.825L28.80390625,155.16999971866608L29.5553125,146.61499943733216L29.5553125,146.31999971866608L30.306718749999998,161.06999998241662L31.058125,147.20500028133392L31.80953125,144.8449997186661L32.5609375,134.52000112533568L33.312343750000004,135.7L34.06375,131.275L34.81515625,127.14500112533568L35.566562499999996,127.73500056266784L36.31796875,133.0450011253357L37.069375,113.575L37.820781249999996,126.5549988746643L38.5721875,100.3L39.32359375,94.4L40.075,101.775L40.82640625,93.80999774932862L41.5778125,105.31500225067138L42.32921875,88.7950011253357L43.080625000000005,94.4L43.83203125,78.76500225067139L44.5834375,117.11499943733216L45.334843750000005,76.10999774932861L46.08625,78.47000112533568L46.837656249999995,107.675L47.5890625,77.29000225067138L48.34046875,79.3549988746643L49.091875,74.9299988746643L49.84328125,141.6L50.5946875,70.20999774932861L51.34609375,108.8549988746643L52.097500000000004,121.53999943733216L52.848906250000006,78.76500225067139L53.6003125,72.8650022506714L54.35171875,91.45L55.103125,82.8950011253357L55.854531249999994,78.47000112533568L56.605937499999996,76.10999774932861L57.35734375,77.29000225067138L58.10875,97.0549988746643L58.86015625,78.175L59.6115625,92.33499774932862L60.36296875,69.325L61.114375,115.3450011253357L61.865781250000005,81.71500225067139L62.6171875,99.41500225067139L63.36859375,114.16500225067139L64.12,75.22500000000001L64.87140624999999,121.53999943733216L65.6228125,123.6049988746643L66.37421875,108.55999774932862L67.125625,129.8L67.87703125,97.94000225067138L68.6284375,89.3849977493286L69.37984375,90.85999774932861L70.13125,89.97500000000001L70.88265625,71.39000225067139L71.6340625,104.725L72.38546875,112.69000225067138L73.136875,90.85999774932861L73.88828124999999,102.95499887466431L74.6396875,99.70999774932861L75.39109375000001,117.70499887466431L76.14250000000001,84.66500225067139L76.89390625,91.45L77.6453125,101.4799988746643L78.39671874999999,88.7950011253357L79.148125,88.7950011253357L79.89953125,86.7299988746643L80.6509375,107.675L81.40234375,110.9200011253357L82.15374999999999,116.8200011253357L82.90515624999999,115.05000000000001L83.65656249999999,92.04000225067139L84.40796875,85.55L85.159375,117.11499943733216L85.91078125,83.7799988746643L86.6621875,91.15499887466432L87.41359375,80.24000225067138L88.165,51.91999549865723L88.91640625,63.71999549865723L89.6678125,74.34000225067139L90.41921875,94.6950011253357L91.170625,68.44000225067138L91.92203125,78.175L92.6734375,61.65500450134277L93.42484375000001,71.68499774932862L94.17625000000001,81.71500225067139L94.92765625000001,57.819995498657235L95.6790625,73.15999774932861L96.43046875,48.38000450134277L97.18187499999999,75.5200011253357L97.93328125,43.36500225067138L98.6846875,67.55500450134278L99.43609375,56.05L100.1875,41.59499549865723L100.93890624999999,51.33000450134277L101.69031249999999,47.49499549865723L102.44171874999999,35.69499549865722L103.193125,61.65500450134277L103.94453125,36.580004501342756L104.6959375,55.45999774932862L105.44734375,44.25L106.19875,50.150000000000006L106.95015625,52.805004501342765L107.7015625,57.819995498657235L108.45296875,56.34499549865723L109.204375,60.18000450134278L109.95578125,48.96999549865723L110.7071875,66.66999549865723L111.45859375,57.230004501342776L112.21000000000001,43.659997749328596L112.96140625000001,41.00500450134277L113.71281250000001,59.884997749328605L114.46421875,50.150000000000006L115.215625,37.169995498657215L115.96703124999999,34.51500225067139L116.7184375,40.11999549865723L117.46984375,37.465002250671375L118.22125,41.59499549865723L118.97265625,57.819995498657235L119.72406249999999,31.565002250671398L120.47546874999999,49.559997749328616L121.22687499999999,33.92500000000001L121.97828125,27.140002250671387L122.7296875,35.99000225067138L123.48109375,30.68000450134278L124.2325,47.49499549865723L124.98390625,30.38499774932862L125.7353125,42.775000000000006L126.48671875,77.87999887466431L127.238125,23.599999999999994L127.98953125,34.51500225067139L128.7409375,37.465002250671375L129.49234375,35.10500450134276L130.24375,24.780004501342773L130.99515625,32.44999999999999L131.7465625,43.659997749328596L132.49796875,32.15500450134277L133.24937500000001,32.44999999999999L134.00078125000002,28.025000000000006L134.7521875,41.00500450134277L135.50359375,39.53000450134277L136.255,28.909997749328625L137.00640625,46.60999774932861L137.7578125,33.04000225067139L138.50921875,30.974999999999994L139.260625,27.140002250671387L140.01203125,37.75999774932862L140.7634375,30.38499774932862L141.51484375,32.44999999999999L142.26624999999999,28.909997749328625L143.01765625,29.205004501342785L143.7690625,31.859997749328613L144.52046875,25.959997749328608L145.271875,28.61500225067138L146.02328125,29.794995498657244L146.7746875,52.21500225067139L147.52609375,40.70999774932861L148.2775,29.794995498657244L149.02890625,32.44999999999999L149.7803125,25.959997749328608L150.53171875,29.5L151.28312499999998,29.205004501342785L152.03453125000001,45.724999999999994L152.7859375,30.974999999999994L153.53734375000002,29.205004501342785L154.28875,24.780004501342773L155.04015625000002,25.075000000000017L155.7915625,33.33499774932861L156.54296875,36.284997749328625L157.294375,45.13499774932862L158.04578125,28.025000000000006L158.7971875,36.580004501342756L159.54859375,31.269995498657238L160.3,26.255004501342768L161.05140625,57.230004501342776L161.8028125,33.33499774932861L162.55421875000002,40.11999549865723L163.305625,44.840002250671404L164.05703125,42.1849977493286L164.8084375,21.24000225067138L165.55984375,24.780004501342773L166.31125,38.64499549865724L167.06265624999997,30.38499774932862L167.8140625,20.94499549865722L168.56546874999998,30.68000450134278L169.316875,25.665002250671392L170.06828124999998,46.90500450134277L170.81968750000001,29.205004501342785L171.57109375,31.269995498657238L172.32250000000002,38.64499549865724L173.07390625,34.21999549865723L173.82531250000002,16.81500225067137L174.57671875,28.61500225067138L175.328125,27.140002250671387L176.07953125,59L176.8309375,38.05500450134278L177.58234375,31.269995498657238L178.33375,28.61500225067138L179.08515625,44.840002250671404L179.8365625,33.04000225067139L180.58796875,27.43499774932863L181.33937500000002,30.974999999999994L182.09078125,28.61500225067138L182.8421875,42.1849977493286L183.59359375,26.255004501342768L184.345,47.49499549865723L185.09640625,32.74499549865723L185.84781249999997,21.534997749328596L186.59921875,28.61500225067138L187.35062499999998,32.74499549865723L188.10203125,23.599999999999994L188.85343749999998,29.794995498657244L189.60484375000001,28.31999549865722L190.35625,38.94000225067137L191.10765625000002,40.70999774932861L191.8590625,41.29999999999998L192.61046875000002,33.33499774932861L193.361875,41.29999999999998L194.11328125,25.665002250671392L194.8646875,26.844995498657227L195.61609375,37.75999774932862L196.3675,21.24000225067138L197.11890625,24.484997749328613L197.8703125,39.82499999999999L198.62171875,42.1849977493286L199.373125,37.169995498657215L200.12453125000002,33.92500000000001L200.8759375,39.82499999999999L201.62734375,41.00500450134277L202.37875,45.724999999999994L203.13015625,37.169995498657215L203.8815625,31.269995498657238L204.63296874999997,55.75500450134277L205.384375,37.465002250671375L206.13578124999998,46.90500450134277L206.8871875,23.599999999999994L207.63859374999998,29.794995498657244L208.39000000000001,33.63000450134277L209.14140625,37.169995498657215L209.89281250000002,21.24000225067138L210.64421875,35.69499549865722L211.39562500000002,27.140002250671387L212.14703125,28.909997749328625L212.8984375,20.35500450134279L213.64984375,40.70999774932861L214.40125,32.15500450134277L215.15265625,25.959997749328608L215.9040625,39.82499999999999L216.65546875,40.11999549865723L217.406875,29.794995498657244L218.15828125,17.994995498657232L218.90968750000002,43.659997749328596L219.66109375,25.369995498657232L220.4125,22.419995498657215L221.16390625,38.05500450134278L221.9153125,20.94499549865722L222.66671875,29.205004501342785L223.41812499999997,28.61500225067138L224.16953125,29.205004501342785L224.92093749999998,25.959997749328608L225.67234375,31.269995498657238L226.42374999999998,34.8099977493286L227.17515625000001,47.79000225067139L227.9265625,27.43499774932863L228.67796875000002,29.794995498657244L229.429375,21.24000225067138L230.18078125000002,25.075000000000017L230.9321875,23.599999999999994L231.68359375,29.794995498657244L232.435,40.70999774932861L233.18640625,23.599999999999994L233.9378125,29.205004501342785L234.68921875,30.090002250671375L235.440625,26.844995498657227L236.19203125,25.075000000000017L236.9434375,20.650000000000006L237.69484375000002,26.255004501342768L238.44625,23.30500450134278L239.19765625,28.909997749328625L239.9490625,20.650000000000006L240.70046875,38.64499549865724L241.451875,26.55000000000001L242.20328124999997,23.00999774932862L242.9546875,28.31999549865722L243.70609374999998,27.730004501342762L244.4575,23.00999774932862L245.20890624999998,31.269995498657238L245.96031250000001,36.580004501342756L246.71171875,23.89499549865721L247.46312500000002,48.67500000000001L248.21453125,50.150000000000006L248.96593750000002,47.20000000000002L249.71734375,18.880004501342768L250.46875,26.844995498657227L251.22015625,36.284997749328625L251.9715625,31.269995498657238L252.72296875,22.715002250671404L253.474375,26.55000000000001L254.22578125,30.38499774932862L254.9771875,41.59499549865723L255.72859375,24.780004501342773L256.48,31.859997749328613L257.23140625,33.04000225067139L257.98281249999997,28.31999549865722L258.73421875,28.31999549865722L259.48562499999997,30.090002250671375L260.23703125000003,24.190002250671398L260.9884375,28.025000000000006L261.73984375,31.269995498657238L262.49125,29.205004501342785L263.24265625,33.04000225067139L263.9940625,37.75999774932862L264.74546875,31.269995498657238L265.496875,22.715002250671404L266.24828125,28.909997749328625L266.9996875,35.69499549865722L267.75109375,20.059997749328602L268.5025,23.30500450134278L269.25390625,23.00999774932862L270.0053125,26.844995498657227L270.75671875,15.634997749328619L271.508125,44.544995498657215L272.25953125,25.959997749328608L273.0109375,29.794995498657244L273.76234375,20.94499549865722L274.51375,23.599999999999994L275.26515625,26.844995498657227" style="fill: none;" fill="none"></path></g></g></g></g></g></g><g transform="translate(29, 177)" clip-path="url(#clip_1)"><clipPath id="clip_1"><rect width="300" height="23"></rect></clipPath><g><g><line x1="0" y1="0" x2="0" y2="5" style="visibility: inherit;" fill="rgb(0, 0, 0)" stroke="rgb(204, 204, 204)" stroke-width="1px"></line><line x1="25.046875" y1="0" x2="25.046875" y2="5" style="visibility: inherit;" fill="rgb(0, 0, 0)" stroke="rgb(204, 204, 204)" stroke-width="1px"></line><line x1="50.09375" y1="0" x2="50.09375" y2="5" style="visibility: inherit;" fill="rgb(0, 0, 0)" stroke="rgb(204, 204, 204)" stroke-width="1px"></line><line x1="75.140625" y1="0" x2="75.140625" y2="5" style="visibility: inherit;" fill="rgb(0, 0, 0)" stroke="rgb(204, 204, 204)" stroke-width="1px"></line><line x1="100.1875" y1="0" x2="100.1875" y2="5" style="visibility: inherit;" fill="rgb(0, 0, 0)" stroke="rgb(204, 204, 204)" stroke-width="1px"></line><line x1="125.234375" y1="0" x2="125.234375" y2="5" style="visibility: inherit;" fill="rgb(0, 0, 0)" stroke="rgb(204, 204, 204)" stroke-width="1px"></line><line x1="150.28125" y1="0" x2="150.28125" y2="5" style="visibility: inherit;" fill="rgb(0, 0, 0)" stroke="rgb(204, 204, 204)" stroke-width="1px"></line><line x1="175.328125" y1="0" x2="175.328125" y2="5" style="visibility: inherit;" fill="rgb(0, 0, 0)" stroke="rgb(204, 204, 204)" stroke-width="1px"></line><line x1="200.375" y1="0" x2="200.375" y2="5" style="visibility: inherit;" fill="rgb(0, 0, 0)" stroke="rgb(204, 204, 204)" stroke-width="1px"></line><line x1="225.421875" y1="0" x2="225.421875" y2="5" style="visibility: inherit;" fill="rgb(0, 0, 0)" stroke="rgb(204, 204, 204)" stroke-width="1px"></line><line x1="250.46875" y1="0" x2="250.46875" y2="5" style="visibility: inherit;" fill="rgb(0, 0, 0)" stroke="rgb(204, 204, 204)" stroke-width="1px"></line><line x1="275.515625" y1="0" x2="275.515625" y2="5" style="visibility: inherit;" fill="rgb(0, 0, 0)" stroke="rgb(204, 204, 204)" stroke-width="1px"></line><line x1="300.5625" y1="0" x2="300.5625" y2="5" style="visibility: inherit;" fill="rgb(0, 0, 0)" stroke="rgb(204, 204, 204)" stroke-width="1px"></line></g><g transform="translate(0, 8)"><text x="0" y="0" dx="0em" dy="0.95em" style="text-anchor: middle; visibility: hidden; font-family: &quot;Helvetica Neue&quot;, sans-serif; font-size: 12px; font-weight: 200;" fill="rgb(50, 49, 63)" stroke="none" stroke-width="1px">-50k</text><text x="25.046875" y="0" dx="0em" dy="0.95em" style="text-anchor: middle; visibility: inherit; font-family: &quot;Helvetica Neue&quot;, sans-serif; font-size: 12px; font-weight: 200;" fill="rgb(50, 49, 63)" stroke="none" stroke-width="1px">0</text><text x="50.09375" y="0" dx="0em" dy="0.95em" style="text-anchor: middle; visibility: hidden; font-family: &quot;Helvetica Neue&quot;, sans-serif; font-size: 12px; font-weight: 200;" fill="rgb(50, 49, 63)" stroke="none" stroke-width="1px">50k</text><text x="75.140625" y="0" dx="0em" dy="0.95em" style="text-anchor: middle; visibility: inherit; font-family: &quot;Helvetica Neue&quot;, sans-serif; font-size: 12px; font-weight: 200;" fill="rgb(50, 49, 63)" stroke="none" stroke-width="1px">100k</text><text x="100.1875" y="0" dx="0em" dy="0.95em" style="text-anchor: middle; visibility: hidden; font-family: &quot;Helvetica Neue&quot;, sans-serif; font-size: 12px; font-weight: 200;" fill="rgb(50, 49, 63)" stroke="none" stroke-width="1px">150k</text><text x="125.234375" y="0" dx="0em" dy="0.95em" style="text-anchor: middle; visibility: inherit; font-family: &quot;Helvetica Neue&quot;, sans-serif; font-size: 12px; font-weight: 200;" fill="rgb(50, 49, 63)" stroke="none" stroke-width="1px">200k</text><text x="150.28125" y="0" dx="0em" dy="0.95em" style="text-anchor: middle; visibility: hidden; font-family: &quot;Helvetica Neue&quot;, sans-serif; font-size: 12px; font-weight: 200;" fill="rgb(50, 49, 63)" stroke="none" stroke-width="1px">250k</text><text x="175.328125" y="0" dx="0em" dy="0.95em" style="text-anchor: middle; visibility: inherit; font-family: &quot;Helvetica Neue&quot;, sans-serif; font-size: 12px; font-weight: 200;" fill="rgb(50, 49, 63)" stroke="none" stroke-width="1px">300k</text><text x="200.375" y="0" dx="0em" dy="0.95em" style="text-anchor: middle; visibility: hidden; font-family: &quot;Helvetica Neue&quot;, sans-serif; font-size: 12px; font-weight: 200;" fill="rgb(50, 49, 63)" stroke="none" stroke-width="1px">350k</text><text x="225.421875" y="0" dx="0em" dy="0.95em" style="text-anchor: middle; visibility: inherit; font-family: &quot;Helvetica Neue&quot;, sans-serif; font-size: 12px; font-weight: 200;" fill="rgb(50, 49, 63)" stroke="none" stroke-width="1px">400k</text><text x="250.46875" y="0" dx="0em" dy="0.95em" style="text-anchor: middle; visibility: hidden; font-family: &quot;Helvetica Neue&quot;, sans-serif; font-size: 12px; font-weight: 200;" fill="rgb(50, 49, 63)" stroke="none" stroke-width="1px">450k</text><text x="275.515625" y="0" dx="0em" dy="0.95em" style="text-anchor: middle; visibility: inherit; font-family: &quot;Helvetica Neue&quot;, sans-serif; font-size: 12px; font-weight: 200;" fill="rgb(50, 49, 63)" stroke="none" stroke-width="1px">500k</text><text x="300.5625" y="0" dx="0em" dy="0.95em" style="text-anchor: middle; visibility: hidden; font-family: &quot;Helvetica Neue&quot;, sans-serif; font-size: 12px; font-weight: 200;" fill="rgb(50, 49, 63)" stroke="none" stroke-width="1px">550k</text></g><line x1="0" y1="0" x2="300.5625" y2="0" fill="rgb(0, 0, 0)" stroke="rgb(204, 204, 204)" stroke-width="1px"></line></g></g></g></g></svg>